<?xml version="1.0" encoding="UTF-8" standalone="no"?>
<!-- Created with Inkscape (http://www.inkscape.org/) -->

<svg
   xmlns:dc="http://purl.org/dc/elements/1.1/"
   xmlns:cc="http://creativecommons.org/ns#"
   xmlns:rdf="http://www.w3.org/1999/02/22-rdf-syntax-ns#"
   xmlns:svg="http://www.w3.org/2000/svg"
   xmlns="http://www.w3.org/2000/svg"
   xmlns:sodipodi="http://sodipodi.sourceforge.net/DTD/sodipodi-0.dtd"
   xmlns:inkscape="http://www.inkscape.org/namespaces/inkscape"
   width="744.09448"
   height="425.19684"
   id="svg2"
   version="1.1"
   inkscape:version="0.48.4 r9939"
   sodipodi:docname="condynet_logo.svg">
  <defs
     id="defs4">
    <clipPath
       id="clipPath3296"
       clipPathUnits="userSpaceOnUse">
      <path
         id="path3298"
         d="m 255,-16 0,0 0,287.1 0,0 0,-287.1 z"
         inkscape:connector-curvature="0" />
    </clipPath>
    <clipPath
       id="clipPath3280"
       clipPathUnits="userSpaceOnUse">
      <path
         id="path3282"
         clip-rule="evenodd"
         d="m 0,0 510.2,0 0,255 L 0,255 0,0 z"
         inkscape:connector-curvature="0" />
    </clipPath>
  </defs>
  <sodipodi:namedview
     id="base"
     pagecolor="#ffffff"
     bordercolor="#666666"
     borderopacity="1.0"
     inkscape:pageopacity="0.0"
     inkscape:pageshadow="2"
     inkscape:zoom="1.5004815"
     inkscape:cx="372.04724"
     inkscape:cy="212.59842"
     inkscape:document-units="mm"
     inkscape:current-layer="layer1"
     showgrid="true"
     units="cm"
     objecttolerance="1"
     gridtolerance="1"
     guidetolerance="1"
     inkscape:window-width="1440"
     inkscape:window-height="851"
     inkscape:window-x="0"
     inkscape:window-y="25"
     inkscape:window-maximized="1">
    <inkscape:grid
       type="xygrid"
       id="grid2989"
       empspacing="5"
       visible="true"
       enabled="true"
       snapvisiblegridlinesonly="true"
       units="cm"
       spacingx="1cm"
       spacingy="1cm" />
  </sodipodi:namedview>
  <metadata
     id="metadata7">
    <rdf:RDF>
      <cc:Work
         rdf:about="">
        <dc:format>image/svg+xml</dc:format>
        <dc:type
           rdf:resource="http://purl.org/dc/dcmitype/StillImage" />
        <dc:title />
      </cc:Work>
    </rdf:RDF>
  </metadata>
  <g
     inkscape:label="Ebene 1"
     inkscape:groupmode="layer"
     id="layer1"
     transform="translate(0,-627.16404)">
    <g
       transform="matrix(2.2990623,0,0,-2.2990623,7.849912,1049.8918)"
       inkscape:label="ink_ext_XXXXXX"
       id="g3018">
      <g
         transform="scale(0.1,0.1)"
         id="g3020">
        <path
           id="path3024"
           style="fill:#231f20;fill-opacity:1;fill-rule:nonzero;stroke:none"
           d="m 273.363,345.781 -42.91,0 0,-34.328 29.805,0 c 3.898,0 5.937,-2.957 5.937,-5.926 0,-2.957 -2.039,-5.925 -5.937,-5.925 l -29.805,0 0,-44.778 c 0,-3.906 -2.969,-5.793 -5.926,-5.793 -2.968,0 -5.929,1.887 -5.929,5.793 l 0,96.887 c 0,3.133 2.812,5.957 5.929,5.957 l 48.836,0 c 4.219,0 5.93,-2.961 5.93,-5.957 0,-2.961 -1.711,-5.93 -5.93,-5.93"
           inkscape:connector-curvature="0" />
        <path
           id="path3026"
           style="fill:#231f20;fill-opacity:1;fill-rule:nonzero;stroke:none"
           d="m 328.414,300.852 c 0,7.332 -5.93,13.269 -13.262,13.269 l -1.554,0 c -7.344,0 -13.27,-5.937 -13.27,-13.269 l 0,-26.848 c 0,-7.313 5.926,-13.242 13.418,-13.242 l 1.406,0 c 7.332,0 13.262,5.929 13.262,13.242 l 0,26.848 z m -13.262,-51.821 -1.554,0 c -13.895,0 -25.137,10.918 -25.137,24.973 l 0,26.848 c 0,13.906 11.242,25.125 25.137,25.125 l 1.554,0 c 13.887,0 25.125,-11.219 25.125,-25.125 l 0,-26.848 c 0,-14.055 -11.238,-24.973 -25.125,-24.973"
           inkscape:connector-curvature="0" />
        <path
           id="path3028"
           style="fill:#231f20;fill-opacity:1;fill-rule:nonzero;stroke:none"
           d="m 400.199,308.66 c -1.719,0 -3.437,0.774 -4.832,2.192 -1.25,1.238 -3.281,3.269 -7.179,3.269 -9.364,0 -10.458,-5.461 -10.458,-10.449 l 0,-48.535 c 0,-4.219 -2.96,-6.106 -5.929,-6.106 -2.957,0 -5.926,1.887 -5.926,6.106 l 0,64.914 c 0,3.738 3.113,5.926 6.082,5.926 2.023,0 4.055,-0.782 5.148,-3.133 0,0 3.125,3.133 11.239,3.133 6.086,0 12.48,-2.188 16.222,-7.649 0.938,-1.414 1.414,-2.664 1.414,-4.043 0,-3.297 -2.664,-5.625 -5.781,-5.625"
           inkscape:connector-curvature="0" />
        <path
           id="path3030"
           style="fill:#231f20;fill-opacity:1;fill-rule:nonzero;stroke:none"
           d="m 449.184,249.031 -0.926,0 c -10.156,0 -21.692,5.793 -26.699,15.473 -0.469,1.07 -0.774,2.019 -0.774,2.957 0,3.574 2.969,5.762 6.086,5.762 1.863,0 3.906,-0.606 5.301,-2.657 3.906,-5.125 10.617,-9.804 16.387,-9.804 l 0.793,0 c 9.511,0 14.824,5.285 14.968,10.437 0.481,20.754 -40.566,5.293 -40.566,34.797 0,14.992 15.762,19.981 25.598,19.981 l 0.625,0 c 10.761,0 17.937,-4.688 20.429,-6.707 1.414,-1.106 2.188,-2.657 2.188,-4.512 0,-3 -2.344,-5.625 -5.606,-5.625 -1.093,0 -2.187,0.301 -3.437,0.937 -3.281,1.688 -6.719,4.215 -13.742,4.215 l -0.625,0 c -8.739,0 -13.426,-3.902 -13.575,-8.457 -0.625,-16.844 40.579,-3.258 40.579,-34.324 l 0,-0.606 c 0,-14.519 -13.887,-21.867 -27.004,-21.867"
           inkscape:connector-curvature="0" />
        <path
           id="path3032"
           style="fill:#231f20;fill-opacity:1;fill-rule:nonzero;stroke:none"
           d="m 524.711,249.031 -1.57,0 c -13.887,0 -25.129,10.918 -25.129,24.973 l 0,26.848 c 0,14.207 11.406,25.125 25.129,25.125 l 1.57,0 c 13.723,0 25.109,-11.219 25.109,-25.125 0,-3.907 -2.961,-5.93 -5.929,-5.93 -2.957,0 -5.762,1.875 -5.926,5.781 -0.469,7.957 -5.93,13.418 -13.254,13.418 l -1.57,0 c -7.325,0 -13.274,-5.937 -13.274,-13.269 l 0,-26.848 c 0,-7.313 5.949,-13.242 13.43,-13.242 l 1.414,0 c 7.324,0 12.785,5.929 13.254,13.242 0.164,4.211 2.969,6.094 5.926,6.094 2.968,0 5.929,-1.883 5.929,-6.094 0,-14.055 -11.23,-24.973 -25.109,-24.973"
           inkscape:connector-curvature="0" />
        <path
           id="path3034"
           style="fill:#231f20;fill-opacity:1;fill-rule:nonzero;stroke:none"
           d="m 622.23,249.031 c -2.968,0 -5.925,1.887 -5.925,5.793 l 0,46.028 c 0,9.218 -7.024,13.269 -13.899,13.269 -7.019,0 -14.199,-4.383 -14.199,-12.5 l 0,-46.797 c 0,-3.906 -2.969,-5.793 -5.926,-5.793 -2.968,0 -5.929,1.887 -5.929,5.793 l 0,97.832 c 0,3.907 2.961,5.93 5.929,5.93 2.957,0 5.926,-2.023 5.926,-5.93 l 0,-31.367 c 2.656,2.969 8.117,4.688 13.574,4.688 l 1.25,0 c 13.899,0 25.129,-11.219 25.129,-25.125 l 0,-46.028 c 0,-3.906 -2.969,-5.793 -5.93,-5.793"
           inkscape:connector-curvature="0" />
        <path
           id="path3036"
           style="fill:#231f20;fill-opacity:1;fill-rule:nonzero;stroke:none"
           d="m 698.375,249.031 c -2.656,0 -5.305,1.418 -5.93,4.524 -2.976,-2.969 -7.957,-4.524 -13.418,-4.524 l -1.414,0 c -13.429,0 -25.117,7.649 -25.117,24.973 l 0,46.047 c 0,3.902 2.969,5.926 5.926,5.926 2.969,0 5.93,-2.024 5.93,-5.926 l 0,-46.047 c 0,-7.313 5.937,-13.242 13.261,-13.242 l 1.414,0 c 7.481,0 13.418,5.929 13.418,13.242 l 0,46.047 c 0,3.902 2.969,5.926 5.93,5.926 2.969,0 5.926,-2.024 5.926,-5.926 l 0,-65.227 c 0,-3.758 -2.957,-5.793 -5.926,-5.793"
           inkscape:connector-curvature="0" />
        <path
           id="path3038"
           style="fill:#231f20;fill-opacity:1;fill-rule:nonzero;stroke:none"
           d="m 777.797,249.031 c -2.969,0 -5.938,1.887 -5.938,5.793 l 0,46.028 c 0,7.332 -5.925,13.269 -13.418,13.269 l -1.394,0 c -7.344,0 -13.43,-5.769 -13.43,-13.269 l 0,-46.028 c 0,-3.906 -2.957,-5.793 -5.926,-5.793 -2.968,0 -5.929,1.887 -5.929,5.793 l 0,65.227 c 0,3.738 2.961,5.926 6.086,5.926 2.656,0 5.3,-1.551 5.925,-4.688 2.961,2.969 7.961,4.688 13.418,4.688 l 1.418,0 c 13.25,0 24.961,-7.95 24.961,-25.125 l 0,-46.028 c 0,-3.906 -2.812,-5.793 -5.773,-5.793"
           inkscape:connector-curvature="0" />
        <path
           id="path3040"
           style="fill:#231f20;fill-opacity:1;fill-rule:nonzero;stroke:none"
           d="m 849.098,301.785 c 0,7.649 -6.243,12.336 -13.262,12.336 l -1.418,0 c -7.324,0 -13.406,-5.769 -13.406,-13.269 l 0,-26.848 c 0,-7.481 6.082,-13.242 13.406,-13.242 l 1.418,0 c 7.019,0 13.262,4.679 13.262,11.992 l 0,29.031 z m -13.262,-85.523 -1.418,0 c -10.605,0 -23.086,5.625 -26.367,17.176 -0.156,0.781 -0.313,1.55 -0.313,2.023 0,3.602 2.969,5.625 6.086,5.625 2.344,0 4.375,-1.106 5.469,-4.074 1.875,-5.149 7.48,-8.887 15.125,-8.887 l 1.418,0 c 7.324,0 13.262,5.93 13.262,13.43 l 0,12 c -2.649,-2.969 -8.106,-4.524 -13.586,-4.524 l -1.094,0 c -13.719,0 -25.273,10.918 -25.273,24.973 l 0,26.848 c 0,13.906 11.554,25.125 25.273,25.125 l 1.418,0 c 6.707,0 11.082,-2.325 13.426,-4.688 0.449,3.137 3.117,4.688 5.761,4.688 2.961,0 5.938,-1.883 5.938,-5.762 l 0,-78.66 c 0,-14.211 -11.25,-25.293 -25.125,-25.293"
           inkscape:connector-curvature="0" />
        <path
           id="path3042"
           style="fill:#231f20;fill-opacity:1;fill-rule:nonzero;stroke:none"
           d="m 912.758,249.031 -0.926,0 c -10.156,0 -21.691,5.793 -26.691,15.473 -0.477,1.07 -0.782,2.019 -0.782,2.957 0,3.574 2.969,5.762 6.086,5.762 1.883,0 3.907,-0.606 5.301,-2.657 3.906,-5.125 10.617,-9.804 16.387,-9.804 l 0.793,0 c 9.519,0 14.824,5.285 14.969,10.437 0.48,20.754 -40.567,5.293 -40.567,34.797 0,14.992 15.762,19.981 25.598,19.981 l 0.625,0 c 10.762,0 17.937,-4.688 20.429,-6.707 1.415,-1.106 2.188,-2.657 2.188,-4.512 0,-3 -2.336,-5.625 -5.605,-5.625 -1.094,0 -2.188,0.301 -3.438,0.937 -3.281,1.688 -6.719,4.215 -13.742,4.215 l -0.625,0 c -8.738,0 -13.426,-3.902 -13.574,-8.457 -0.625,-16.844 40.578,-3.258 40.578,-34.324 l 0,-0.606 c 0,-14.519 -13.887,-21.867 -27.004,-21.867"
           inkscape:connector-curvature="0" />
        <path
           id="path3044"
           style="fill:#231f20;fill-opacity:1;fill-rule:nonzero;stroke:none"
           d="m 970.648,249.031 c -2.968,0 -5.925,1.887 -5.925,5.793 l 0,65.227 c 0,3.902 2.957,5.926 5.925,5.926 2.961,0 5.93,-2.024 5.93,-5.926 l 0,-65.227 c 0,-3.906 -2.969,-5.793 -5.93,-5.793 z m 0,94.262 c -2.968,0 -5.925,2.051 -5.925,5.926 l 0,3.437 c 0,3.907 2.957,5.93 5.925,5.93 2.961,0 5.93,-2.023 5.93,-5.93 l 0,-3.437 c 0,-3.875 -2.969,-5.926 -5.93,-5.926"
           inkscape:connector-curvature="0" />
        <path
           id="path3046"
           style="fill:#231f20;fill-opacity:1;fill-rule:nonzero;stroke:none"
           d="m 1052.25,249.031 c -2.96,0 -5.93,1.887 -5.93,5.793 l 0,46.028 c 0,7.332 -5.92,13.269 -13.41,13.269 l -1.41,0 c -7.33,0 -13.42,-5.769 -13.42,-13.269 l 0,-46.028 c 0,-3.906 -2.97,-5.793 -5.93,-5.793 -2.97,0 -5.92,1.887 -5.92,5.793 l 0,65.227 c 0,3.738 2.95,5.926 6.07,5.926 2.67,0 5.31,-1.551 5.93,-4.688 2.97,2.969 7.97,4.688 13.43,4.688 l 1.41,0 c 13.25,0 24.96,-7.95 24.96,-25.125 l 0,-46.028 c 0,-3.906 -2.81,-5.793 -5.78,-5.793"
           inkscape:connector-curvature="0" />
        <path
           id="path3048"
           style="fill:#231f20;fill-opacity:1;fill-rule:nonzero;stroke:none"
           d="m 1092.04,249.031 c -2.96,0 -5.93,1.887 -5.93,5.793 l 0,65.227 c 0,3.902 2.97,5.926 5.93,5.926 2.96,0 5.92,-2.024 5.92,-5.926 l 0,-65.227 c 0,-3.906 -2.96,-5.793 -5.92,-5.793 z m 0,94.262 c -2.96,0 -5.93,2.051 -5.93,5.926 l 0,3.437 c 0,3.907 2.97,5.93 5.93,5.93 2.96,0 5.92,-2.023 5.92,-5.93 l 0,-3.437 c 0,-3.875 -2.96,-5.926 -5.92,-5.926"
           inkscape:connector-curvature="0" />
        <path
           id="path3050"
           style="fill:#231f20;fill-opacity:1;fill-rule:nonzero;stroke:none"
           d="m 1153.99,249.031 c -11.41,0 -20.45,9.067 -20.45,20.453 l 0,44.161 -5.46,0 c -3.91,0 -5.93,2.968 -5.93,5.925 0,2.969 2.02,5.938 5.93,5.938 l 5.46,0 0,27.148 c 0,3.907 2.97,5.93 5.93,5.93 2.97,0 5.93,-2.023 5.93,-5.93 l 0,-27.148 8.43,0 c 3.9,0 5.93,-2.969 5.93,-5.938 0,-2.957 -2.03,-5.925 -5.93,-5.925 l -8.43,0 0,-43.997 c 0,-5.488 4.21,-8.582 9.06,-8.886 3.74,-0.34 5.46,-2.969 5.46,-5.938 0,-2.988 -1.72,-5.793 -5.93,-5.793"
           inkscape:connector-curvature="0" />
        <path
           id="path3052"
           style="fill:#231f20;fill-opacity:1;fill-rule:nonzero;stroke:none"
           d="m 1190.03,249.031 c -2.96,0 -5.92,1.887 -5.92,5.793 l 0,65.227 c 0,3.902 2.96,5.926 5.92,5.926 2.96,0 5.93,-2.024 5.93,-5.926 l 0,-65.227 c 0,-3.906 -2.97,-5.793 -5.93,-5.793 z m 0,94.262 c -2.96,0 -5.92,2.051 -5.92,5.926 l 0,3.437 c 0,3.907 2.96,5.93 5.92,5.93 2.96,0 5.93,-2.023 5.93,-5.93 l 0,-3.437 c 0,-3.875 -2.97,-5.926 -5.93,-5.926"
           inkscape:connector-curvature="0" />
        <path
           id="path3054"
           style="fill:#231f20;fill-opacity:1;fill-rule:nonzero;stroke:none"
           d="m 1261.64,286.328 c -11.55,-2.793 -28.1,-2.793 -28.1,-13.406 l 0,-1.25 c 0,-6.699 5.32,-10.91 13.27,-10.91 l 1.4,0 c 7.34,0 13.43,5.761 13.43,13.242 l 0,12.324 z m 15.13,-37.297 c -0.47,0 -0.94,0 -1.09,0.168 -5.46,0.781 -8.58,2.969 -10.61,5.938 -4.53,-3.907 -10.46,-6.106 -16.86,-6.106 l -1.4,0 c -12.48,0 -25.13,7.649 -25.13,22.336 l 0,1.856 c 0,24.66 35.59,20.449 39.49,25.605 0.47,0.606 0.47,1.875 0.47,2.656 0,9.368 -5.79,12.637 -12.64,12.637 l -1.09,0 c -6.4,0 -9.68,-2.668 -12.65,-7.812 -1.25,-2.332 -3.27,-3.106 -5.3,-3.106 -2.97,0 -5.93,2.188 -5.93,5.457 0,1.078 0.16,2.024 0.62,2.793 5,11.25 15.14,14.524 23.26,14.524 l 1.09,0 c 13.89,0 24.49,-10.782 24.49,-24.024 l 0,-36.211 c 0,-2.961 1.42,-4.676 4.06,-5.144 3.59,-0.649 5,-3.137 5,-5.625 0,-3.137 -2.04,-5.942 -5.78,-5.942"
           inkscape:connector-curvature="0" />
        <path
           id="path3056"
           style="fill:#231f20;fill-opacity:1;fill-rule:nonzero;stroke:none"
           d="m 1330.78,249.031 c -11.41,0 -20.45,9.067 -20.45,20.453 l 0,44.161 -5.46,0 c -3.91,0 -5.93,2.968 -5.93,5.925 0,2.969 2.02,5.938 5.93,5.938 l 5.46,0 0,27.148 c 0,3.907 2.97,5.93 5.92,5.93 2.97,0 5.93,-2.023 5.93,-5.93 l 0,-27.148 8.44,0 c 3.9,0 5.93,-2.969 5.93,-5.938 0,-2.957 -2.03,-5.925 -5.93,-5.925 l -8.44,0 0,-43.997 c 0,-5.488 4.21,-8.582 9.07,-8.886 3.74,-0.34 5.45,-2.969 5.45,-5.938 0,-2.988 -1.71,-5.793 -5.92,-5.793"
           inkscape:connector-curvature="0" />
        <path
           id="path3058"
           style="fill:#231f20;fill-opacity:1;fill-rule:nonzero;stroke:none"
           d="m 1366.8,249.031 c -2.96,0 -5.93,1.887 -5.93,5.793 l 0,65.227 c 0,3.902 2.97,5.926 5.93,5.926 2.97,0 5.93,-2.024 5.93,-5.926 l 0,-65.227 c 0,-3.906 -2.96,-5.793 -5.93,-5.793 z m 0,94.262 c -2.96,0 -5.93,2.051 -5.93,5.926 l 0,3.437 c 0,3.907 2.97,5.93 5.93,5.93 2.97,0 5.93,-2.023 5.93,-5.93 l 0,-3.437 c 0,-3.875 -2.96,-5.926 -5.93,-5.926"
           inkscape:connector-curvature="0" />
        <path
           id="path3060"
           style="fill:#231f20;fill-opacity:1;fill-rule:nonzero;stroke:none"
           d="m 1452.47,318.164 -21.22,-65.223 c -0.94,-2.66 -3.75,-3.91 -5.63,-3.91 l -1.4,0 c -2.02,0 -4.83,0.949 -5.78,3.91 l -21.22,65.223 c -0.14,0.801 -0.3,1.574 -0.3,2.051 0,3.098 2.49,5.762 6.08,5.762 2.34,0 4.53,-1.082 5.46,-4.043 l 16.39,-50.262 16.39,50.262 c 0.93,2.961 3.11,4.043 5.45,4.043 3.59,0 6.24,-2.664 6.24,-5.762 0,-0.809 -0.14,-1.414 -0.46,-2.051"
           inkscape:connector-curvature="0" />
        <path
           id="path3062"
           style="fill:#231f20;fill-opacity:1;fill-rule:nonzero;stroke:none"
           d="m 1513.79,300.703 c 0,7.649 -6.25,13.418 -13.1,13.418 l -1.56,0 c -7.34,0 -13.43,-5.769 -13.43,-13.269 l 0,-7.793 28.09,0 0,7.644 z m 5.93,-18.719 -34.02,0 0,-7.98 c 0,-7.313 5.93,-13.242 13.27,-13.242 l 1.55,0 c 6.1,0 10.16,3.562 12.18,7.949 1.09,2.656 3.12,3.738 5.16,3.738 3.11,0 6.07,-2.5 6.07,-6.09 0,-0.918 -0.15,-1.855 -0.62,-2.636 -3.74,-8.75 -12.17,-14.692 -22.79,-14.692 l -1.55,0 c -13.9,0 -25.13,10.918 -25.13,24.973 l 0,26.848 c 0,13.906 11.23,25.125 25.13,25.125 l 1.55,0 c 13.9,0 25.13,-10.782 25.13,-25.274 l 0,-12.793 c 0,-3.133 -2.65,-5.926 -5.93,-5.926"
           inkscape:connector-curvature="0" />
        <path
           id="path3064"
           style="fill:#231f20;fill-opacity:1;fill-rule:nonzero;stroke:none"
           d="m 1647.37,302.09 c 0,7.344 -6.25,12.031 -13.28,12.031 l -1.39,0 c -7.5,0 -13.44,-5.937 -13.44,-13.269 l 0,-26.848 c 0,-7.313 5.94,-13.242 13.28,-13.242 l 1.55,0 c 7.03,0 13.28,4.679 13.28,12.324 l 0,29.004 z m 5.92,-53.059 c -2.64,0 -5.3,1.418 -5.77,4.524 -2.34,-2.325 -6.71,-4.524 -13.43,-4.524 l -1.39,0 c -14.2,0 -25.29,10.918 -25.29,24.973 l 0,26.848 c 0,13.906 11.09,25.125 25.29,25.125 l 1.09,0 c 5.45,0 10.92,-1.883 13.58,-5.157 l 0,31.836 c 0,3.907 2.97,5.93 5.92,5.93 2.96,0 5.93,-2.023 5.93,-5.93 l 0,-98.164 c 0,-3.738 -2.97,-5.461 -5.93,-5.461"
           inkscape:connector-curvature="0" />
        <path
           id="path3066"
           style="fill:#231f20;fill-opacity:1;fill-rule:nonzero;stroke:none"
           d="m 1727.88,300.703 c 0,7.649 -6.25,13.418 -13.11,13.418 l -1.56,0 c -7.33,0 -13.42,-5.769 -13.42,-13.269 l 0,-7.793 28.09,0 0,7.644 z m 5.93,-18.719 -34.02,0 0,-7.98 c 0,-7.313 5.92,-13.242 13.26,-13.242 l 1.54,0 c 6.12,0 10.16,3.562 12.19,7.949 1.1,2.656 3.13,3.738 5.16,3.738 3.1,0 6.07,-2.5 6.07,-6.09 0,-0.918 -0.15,-1.855 -0.62,-2.636 -3.73,-8.75 -12.17,-14.692 -22.8,-14.692 l -1.54,0 c -13.88,0 -25.13,10.918 -25.13,24.973 l 0,26.848 c 0,13.906 11.25,25.125 25.13,25.125 l 1.54,0 c 13.91,0 25.14,-10.782 25.14,-25.274 l 0,-12.793 c 0,-3.133 -2.64,-5.926 -5.92,-5.926"
           inkscape:connector-curvature="0" />
        <path
           id="path3068"
           style="fill:#231f20;fill-opacity:1;fill-rule:nonzero;stroke:none"
           d="m 1798.25,308.66 c -1.72,0 -3.44,0.774 -4.85,2.192 -1.23,1.238 -3.28,3.269 -7.16,3.269 -9.36,0 -10.45,-5.461 -10.45,-10.449 l 0,-48.535 c 0,-4.219 -2.97,-6.106 -5.94,-6.106 -2.97,0 -5.94,1.887 -5.94,6.106 l 0,64.914 c 0,3.738 3.13,5.926 6.09,5.926 2.02,0 4.07,-0.782 5.16,-3.133 0,0 3.11,3.133 11.23,3.133 6.08,0 12.48,-2.188 16.21,-7.649 0.96,-1.414 1.43,-2.664 1.43,-4.043 0,-3.297 -2.66,-5.625 -5.78,-5.625"
           inkscape:connector-curvature="0" />
        <path
           id="path3070"
           style="fill:#231f20;fill-opacity:1;fill-rule:nonzero;stroke:none"
           d="m 1932.11,280.867 c 0,10.149 -8.26,18.567 -17.79,18.567 l -18.1,0 0,-37.762 18.1,0 c 9.85,0 17.79,7.976 17.79,17.793 l 0,1.402 z m -1.25,48.379 c 0,10 -6.69,16.535 -16.54,16.535 l -18.1,0 0,-34.461 18.1,0 c 9.38,0 16.54,7.313 16.54,17.782 l 0,0.144 z m -16.54,-79.43 -24.02,0 c -3.13,0 -5.94,2.821 -5.94,5.926 l 0,95.969 c 0,3.133 2.81,5.957 5.94,5.957 l 24.02,0 c 16.7,0 28.4,-12.188 28.4,-28.422 l 0,-0.144 c 0,-11.719 -5.45,-19.969 -12.15,-23.711 6.54,-3.77 13.4,-11.883 13.4,-24.524 l 0,-1.402 c 0,-16.379 -13.24,-29.649 -29.65,-29.649"
           inkscape:connector-curvature="0" />
        <path
           id="path3072"
           style="fill:#231f20;fill-opacity:1;fill-rule:nonzero;stroke:none"
           d="m 2014.18,249.031 c -2.65,0 -5.29,1.418 -5.91,4.524 -2.99,-2.969 -7.97,-4.524 -13.42,-4.524 l -1.43,0 c -13.42,0 -25.11,7.649 -25.11,24.973 l 0,46.047 c 0,3.902 2.96,5.926 5.93,5.926 2.97,0 5.94,-2.024 5.94,-5.926 l 0,-46.047 c 0,-7.313 5.92,-13.242 13.24,-13.242 l 1.43,0 c 7.48,0 13.42,5.929 13.42,13.242 l 0,46.047 c 0,3.902 2.97,5.926 5.91,5.926 2.97,0 5.94,-2.024 5.94,-5.926 l 0,-65.227 c 0,-3.758 -2.97,-5.793 -5.94,-5.793"
           inkscape:connector-curvature="0" />
        <path
           id="path3074"
           style="fill:#231f20;fill-opacity:1;fill-rule:nonzero;stroke:none"
           d="m 2093.62,249.031 c -2.97,0 -5.94,1.887 -5.94,5.793 l 0,46.028 c 0,7.332 -5.94,13.269 -13.42,13.269 l -1.4,0 c -7.35,0 -13.42,-5.769 -13.42,-13.269 l 0,-46.028 c 0,-3.906 -2.97,-5.793 -5.94,-5.793 -2.95,0 -5.92,1.887 -5.92,5.793 l 0,65.227 c 0,3.738 2.97,5.926 6.08,5.926 2.65,0 5.31,-1.551 5.93,-4.688 2.95,2.969 7.95,4.688 13.42,4.688 l 1.41,0 c 13.26,0 24.96,-7.95 24.96,-25.125 l 0,-46.028 c 0,-3.906 -2.81,-5.793 -5.76,-5.793"
           inkscape:connector-curvature="0" />
        <path
           id="path3076"
           style="fill:#231f20;fill-opacity:1;fill-rule:nonzero;stroke:none"
           d="m 2164.13,302.09 c 0,7.344 -6.25,12.031 -13.27,12.031 l -1.4,0 c -7.48,0 -13.42,-5.937 -13.42,-13.269 l 0,-26.848 c 0,-7.313 5.94,-13.242 13.26,-13.242 l 1.56,0 c 7.02,0 13.27,4.679 13.27,12.324 l 0,29.004 z m 5.93,-53.059 c -2.65,0 -5.31,1.418 -5.78,4.524 -2.34,-2.325 -6.7,-4.524 -13.42,-4.524 l -1.4,0 c -14.2,0 -25.28,10.918 -25.28,24.973 l 0,26.848 c 0,13.906 11.08,25.125 25.28,25.125 l 1.09,0 c 5.47,0 10.92,-1.883 13.58,-5.157 l 0,31.836 c 0,3.907 2.96,5.93 5.93,5.93 2.97,0 5.92,-2.023 5.92,-5.93 l 0,-98.164 c 0,-3.738 -2.95,-5.461 -5.92,-5.461"
           inkscape:connector-curvature="0" />
        <path
           id="path3078"
           style="fill:#231f20;fill-opacity:1;fill-rule:nonzero;stroke:none"
           d="m 2244.65,300.703 c 0,7.649 -6.25,13.418 -13.1,13.418 l -1.58,0 c -7.33,0 -13.42,-5.769 -13.42,-13.269 l 0,-7.793 28.1,0 0,7.644 z m 5.92,-18.719 -34.02,0 0,-7.98 c 0,-7.313 5.94,-13.242 13.28,-13.242 l 1.54,0 c 6.1,0 10.16,3.562 12.17,7.949 1.11,2.656 3.13,3.738 5.16,3.738 3.12,0 6.09,-2.5 6.09,-6.09 0,-0.918 -0.16,-1.855 -0.62,-2.636 -3.75,-8.75 -12.19,-14.692 -22.8,-14.692 l -1.54,0 c -13.91,0 -25.14,10.918 -25.14,24.973 l 0,26.848 c 0,13.906 11.23,25.125 25.14,25.125 l 1.54,0 c 13.89,0 25.14,-10.782 25.14,-25.274 l 0,-12.793 c 0,-3.133 -2.66,-5.926 -5.94,-5.926"
           inkscape:connector-curvature="0" />
        <path
           id="path3080"
           style="fill:#231f20;fill-opacity:1;fill-rule:nonzero;stroke:none"
           d="m 2305.18,249.031 -0.94,0 c -10.13,0 -21.68,5.793 -26.68,15.473 -0.47,1.07 -0.78,2.019 -0.78,2.957 0,3.574 2.97,5.762 6.08,5.762 1.87,0 3.9,-0.606 5.31,-2.657 3.91,-5.125 10.6,-9.804 16.39,-9.804 l 0.78,0 c 9.53,0 14.82,5.285 14.98,10.437 0.47,20.754 -40.57,5.293 -40.57,34.797 0,14.992 15.76,19.981 25.59,19.981 l 0.62,0 c 10.76,0 17.95,-4.688 20.45,-6.707 1.41,-1.106 2.19,-2.657 2.19,-4.512 0,-3 -2.35,-5.625 -5.63,-5.625 -1.09,0 -2.18,0.301 -3.43,0.937 -3.29,1.688 -6.72,4.215 -13.73,4.215 l -0.63,0 c -8.75,0 -13.42,-3.902 -13.57,-8.457 -0.63,-16.844 40.56,-3.258 40.56,-34.324 l 0,-0.606 c 0,-14.519 -13.86,-21.867 -26.99,-21.867"
           inkscape:connector-curvature="0" />
        <path
           id="path3082"
           style="fill:#231f20;fill-opacity:1;fill-rule:nonzero;stroke:none"
           d="m 2389.13,308.66 c -1.72,0 -3.44,0.774 -4.85,2.192 -1.23,1.238 -3.28,3.269 -7.17,3.269 -9.35,0 -10.44,-5.461 -10.44,-10.449 l 0,-48.535 c 0,-4.219 -2.97,-6.106 -5.94,-6.106 -2.97,0 -5.94,1.887 -5.94,6.106 l 0,64.914 c 0,3.738 3.13,5.926 6.09,5.926 2.02,0 4.07,-0.782 5.16,-3.133 0,0 3.11,3.133 11.23,3.133 6.07,0 12.48,-2.188 16.21,-7.649 0.96,-1.414 1.43,-2.664 1.43,-4.043 0,-3.297 -2.66,-5.625 -5.78,-5.625"
           inkscape:connector-curvature="0" />
        <path
           id="path3084"
           style="fill:#231f20;fill-opacity:1;fill-rule:nonzero;stroke:none"
           d="m 2452.64,300.703 c 0,7.649 -6.25,13.418 -13.1,13.418 l -1.57,0 c -7.32,0 -13.41,-5.769 -13.41,-13.269 l 0,-7.793 28.08,0 0,7.644 z m 5.92,-18.719 -34,0 0,-7.98 c 0,-7.313 5.91,-13.242 13.26,-13.242 l 1.54,0 c 6.11,0 10.16,3.562 12.19,7.949 1.09,2.656 3.1,3.738 5.15,3.738 3.11,0 6.08,-2.5 6.08,-6.09 0,-0.918 -0.16,-1.855 -0.63,-2.636 -3.73,-8.75 -12.16,-14.692 -22.79,-14.692 l -1.54,0 c -13.89,0 -25.14,10.918 -25.14,24.973 l 0,26.848 c 0,13.906 11.25,25.125 25.14,25.125 l 1.54,0 c 13.91,0 25.14,-10.782 25.14,-25.274 l 0,-12.793 c 0,-3.133 -2.64,-5.926 -5.94,-5.926"
           inkscape:connector-curvature="0" />
        <path
           id="path3086"
           style="fill:#231f20;fill-opacity:1;fill-rule:nonzero;stroke:none"
           d="m 2528.46,301.785 c 0,7.649 -6.23,12.336 -13.24,12.336 l -1.43,0 c -7.32,0 -13.39,-5.769 -13.39,-13.269 l 0,-26.848 c 0,-7.481 6.07,-13.242 13.39,-13.242 l 1.43,0 c 7.01,0 13.24,4.679 13.24,11.992 l 0,29.031 z m -13.24,-85.523 -1.43,0 c -10.6,0 -23.08,5.625 -26.36,17.176 -0.16,0.781 -0.32,1.55 -0.32,2.023 0,3.602 2.97,5.625 6.1,5.625 2.32,0 4.37,-1.106 5.47,-4.074 1.87,-5.149 7.48,-8.887 15.11,-8.887 l 1.43,0 c 7.32,0 13.24,5.93 13.24,13.43 l 0,12 c -2.63,-2.969 -8.1,-4.524 -13.57,-4.524 l -1.1,0 c -13.73,0 -25.27,10.918 -25.27,24.973 l 0,26.848 c 0,13.906 11.54,25.125 25.27,25.125 l 1.43,0 c 6.7,0 11.07,-2.325 13.42,-4.688 0.45,3.137 3.1,4.688 5.76,4.688 2.97,0 5.94,-1.883 5.94,-5.762 l 0,-78.66 c 0,-14.211 -11.25,-25.293 -25.12,-25.293"
           inkscape:connector-curvature="0" />
        <path
           id="path3088"
           style="fill:#231f20;fill-opacity:1;fill-rule:nonzero;stroke:none"
           d="m 2575.9,249.031 c -2.97,0 -5.93,1.887 -5.93,5.793 l 0,65.227 c 0,3.902 2.96,5.926 5.93,5.926 2.97,0 5.92,-2.024 5.92,-5.926 l 0,-65.227 c 0,-3.906 -2.95,-5.793 -5.92,-5.793 z m 0,94.262 c -2.97,0 -5.93,2.051 -5.93,5.926 l 0,3.437 c 0,3.907 2.96,5.93 5.93,5.93 2.97,0 5.92,-2.023 5.92,-5.93 l 0,-3.437 c 0,-3.875 -2.95,-5.926 -5.92,-5.926"
           inkscape:connector-curvature="0" />
        <path
           id="path3090"
           style="fill:#231f20;fill-opacity:1;fill-rule:nonzero;stroke:none"
           d="m 2649.71,300.703 c 0,7.649 -6.25,13.418 -13.1,13.418 l -1.57,0 c -7.34,0 -13.43,-5.769 -13.43,-13.269 l 0,-7.793 28.1,0 0,7.644 z m 5.92,-18.719 -34.02,0 0,-7.98 c 0,-7.313 5.93,-13.242 13.28,-13.242 l 1.54,0 c 6.09,0 10.16,3.562 12.19,7.949 1.09,2.656 3.1,3.738 5.15,3.738 3.11,0 6.08,-2.5 6.08,-6.09 0,-0.918 -0.16,-1.855 -0.63,-2.636 -3.75,-8.75 -12.16,-14.692 -22.79,-14.692 l -1.54,0 c -13.91,0 -25.14,10.918 -25.14,24.973 l 0,26.848 c 0,13.906 11.23,25.125 25.14,25.125 l 1.54,0 c 13.91,0 25.14,-10.782 25.14,-25.274 l 0,-12.793 c 0,-3.133 -2.66,-5.926 -5.94,-5.926"
           inkscape:connector-curvature="0" />
        <path
           id="path3092"
           style="fill:#231f20;fill-opacity:1;fill-rule:nonzero;stroke:none"
           d="m 2720.08,308.66 c -1.72,0 -3.43,0.774 -4.84,2.192 -1.25,1.238 -3.28,3.269 -7.17,3.269 -9.37,0 -10.47,-5.461 -10.47,-10.449 l 0,-48.535 c 0,-4.219 -2.95,-6.106 -5.92,-6.106 -2.96,0 -5.93,1.887 -5.93,6.106 l 0,64.914 c 0,3.738 3.12,5.926 6.09,5.926 2.01,0 4.04,-0.782 5.14,-3.133 0,0 3.12,3.133 11.25,3.133 6.07,0 12.48,-2.188 16.21,-7.649 0.94,-1.414 1.4,-2.664 1.4,-4.043 0,-3.297 -2.65,-5.625 -5.76,-5.625"
           inkscape:connector-curvature="0" />
        <path
           id="path3094"
           style="fill:#231f20;fill-opacity:1;fill-rule:nonzero;stroke:none"
           d="m 2789.83,249.031 c -2.66,0 -5.31,1.418 -5.94,4.524 -2.97,-2.969 -7.97,-4.524 -13.42,-4.524 l -1.4,0 c -13.44,0 -25.12,7.649 -25.12,24.973 l 0,46.047 c 0,3.902 2.97,5.926 5.92,5.926 2.97,0 5.94,-2.024 5.94,-5.926 l 0,-46.047 c 0,-7.313 5.91,-13.242 13.26,-13.242 l 1.4,0 c 7.48,0 13.42,5.929 13.42,13.242 l 0,46.047 c 0,3.902 2.97,5.926 5.94,5.926 2.97,0 5.92,-2.024 5.92,-5.926 l 0,-65.227 c 0,-3.758 -2.95,-5.793 -5.92,-5.793"
           inkscape:connector-curvature="0" />
        <path
           id="path3096"
           style="fill:#231f20;fill-opacity:1;fill-rule:nonzero;stroke:none"
           d="m 2869.24,249.031 c -2.97,0 -5.93,1.887 -5.93,5.793 l 0,46.028 c 0,7.332 -5.92,13.269 -13.42,13.269 l -1.41,0 c -7.32,0 -13.42,-5.769 -13.42,-13.269 l 0,-46.028 c 0,-3.906 -2.97,-5.793 -5.91,-5.793 -2.97,0 -5.94,1.887 -5.94,5.793 l 0,65.227 c 0,3.738 2.97,5.926 6.07,5.926 2.68,0 5.31,-1.551 5.94,-4.688 2.97,2.969 7.97,4.688 13.42,4.688 l 1.42,0 c 13.25,0 24.96,-7.95 24.96,-25.125 l 0,-46.028 c 0,-3.906 -2.81,-5.793 -5.78,-5.793"
           inkscape:connector-curvature="0" />
        <path
           id="path3098"
           style="fill:#231f20;fill-opacity:1;fill-rule:nonzero;stroke:none"
           d="m 2940.53,301.785 c 0,7.649 -6.23,12.336 -13.24,12.336 l -1.43,0 c -7.32,0 -13.39,-5.769 -13.39,-13.269 l 0,-26.848 c 0,-7.481 6.07,-13.242 13.39,-13.242 l 1.43,0 c 7.01,0 13.24,4.679 13.24,11.992 l 0,29.031 z m -13.24,-85.523 -1.43,0 c -10.6,0 -23.08,5.625 -26.36,17.176 -0.16,0.781 -0.32,1.55 -0.32,2.023 0,3.602 2.97,5.625 6.1,5.625 2.34,0 4.37,-1.106 5.47,-4.074 1.87,-5.149 7.48,-8.887 15.11,-8.887 l 1.43,0 c 7.32,0 13.24,5.93 13.24,13.43 l 0,12 c -2.63,-2.969 -8.1,-4.524 -13.57,-4.524 l -1.1,0 c -13.73,0 -25.27,10.918 -25.27,24.973 l 0,26.848 c 0,13.906 11.54,25.125 25.27,25.125 l 1.43,0 c 6.7,0 11.07,-2.325 13.42,-4.688 0.45,3.137 3.12,4.688 5.76,4.688 2.97,0 5.94,-1.883 5.94,-5.762 l 0,-78.66 c 0,-14.211 -11.25,-25.293 -25.12,-25.293"
           inkscape:connector-curvature="0" />
        <path
           id="path3100"
           style="fill:#7b7979;fill-opacity:1;fill-rule:nonzero;stroke:none"
           d="m 289.234,484.094 -3.086,0 c -32.441,0 -60.234,21.933 -60.234,59.922 0,9.89 7.41,14.824 14.824,14.824 7.422,0 14.825,-4.934 14.825,-14.824 0,-19.786 12.976,-30.891 30.585,-30.891 l 3.086,0 c 18.223,0 31.825,9.895 31.825,28.086 0,43.254 -93.289,43.555 -93.289,99.465 l 0,5.574 c 0,33.352 30.574,54.656 58.679,54.656 l 2.785,0 c 29.657,0 58.379,-15.73 58.379,-47.261 l 0,-1.829 c 0,-8.339 -5.859,-13.906 -14.199,-13.906 -8.664,0 -13.605,5.235 -15.461,13.574 -3.699,16.68 -12.363,20.09 -28.719,20.09 l -2.785,0 c -13.582,0 -29.031,-8.652 -29.031,-23.781 l 0,-6.172 c 0,-29.676 93.281,-36.465 93.281,-100.41 0,-34.871 -26.875,-57.117 -61.465,-57.117"
           inkscape:connector-curvature="0" />
        <path
           id="path3102"
           style="fill:#7b7979;fill-opacity:1;fill-rule:nonzero;stroke:none"
           d="m 476.949,669.707 -29.336,0 0,-171.102 c 0,-9.894 -7.422,-14.511 -14.824,-14.511 -7.422,0 -14.824,4.617 -14.824,14.511 l 0,171.102 -29.348,0 c -9.883,0 -14.824,7.434 -14.824,14.523 0,7.422 4.941,14.825 14.824,14.825 l 88.332,0 c 9.891,0 14.824,-7.403 14.824,-14.825 0,-7.089 -4.933,-14.523 -14.824,-14.523"
           inkscape:connector-curvature="0" />
        <path
           id="path3104"
           style="fill:#7b7979;fill-opacity:1;fill-rule:nonzero;stroke:none"
           d="m 619.34,638.82 c 0,17.313 -12.656,30.887 -29.656,30.887 l -36.438,0 0,-64.246 36.758,0 c 16.984,0 29.336,13.602 29.336,30.594 l 0,2.765 z m -9.57,-59.894 35.214,-73.836 c 1.231,-2.461 1.536,-4.629 1.536,-6.485 0,-8.339 -6.165,-14.511 -15.754,-14.511 -4.93,0 -9.883,2.156 -12.657,8.023 l -39.843,84.004 -25.02,0 0,-77.516 c 0,-9.894 -7.117,-14.511 -14.512,-14.511 -7.734,0 -15.144,4.617 -15.144,14.511 l 0,185.625 c 0,7.735 7.109,14.825 14.844,14.825 l 50.332,0 C 622.125,699.055 649,672.18 649,638.82 l 0,-2.765 c 0,-26.571 -15.762,-49.121 -39.23,-57.129"
           inkscape:connector-curvature="0" />
        <path
           id="path3106"
           style="fill:#7b7979;fill-opacity:1;fill-rule:nonzero;stroke:none"
           d="m 781.129,641.926 c 0,17.285 -13.606,29.648 -30.586,29.648 l -3.098,0 c -16.98,0 -30.566,-12.668 -30.566,-29.648 l 0,-98.852 c 0,-17.293 13.586,-29.949 30.566,-29.949 l 3.098,0 c 16.98,0 30.586,12.656 30.586,29.949 l 0,98.852 z m -30.586,-157.832 -3.098,0 c -33.035,0 -60.222,25.32 -60.222,58.98 l 0,98.852 c 0,33.355 27.187,58.98 60.547,58.98 l 2.773,0 c 33.348,0 60.223,-25.625 60.223,-58.98 l 0,-98.852 c 0,-33.66 -26.875,-58.98 -60.223,-58.98"
           inkscape:connector-curvature="0" />
        <path
           id="path3108"
           style="fill:#7b7979;fill-opacity:1;fill-rule:nonzero;stroke:none"
           d="m 997.367,484.094 c -7.41,0 -14.824,4.617 -14.824,14.511 l 0,130.965 -33.359,-77.215 c -2.774,-6.183 -9.266,-9.281 -15.75,-9.281 -6.184,0 -12.356,3.098 -15.137,9.281 l -34.59,77.215 0,-130.965 c 0,-9.894 -7.414,-14.511 -14.824,-14.511 -7.414,0 -14.836,4.617 -14.836,14.511 l 0,187.481 c 0,7.734 7.121,14.82 14.836,14.82 l 3.699,0 c 7.727,0 12.656,-2.769 15.137,-8.64 l 45.715,-101.934 45.086,101.934 c 2.785,6.484 6.789,8.64 15.148,8.64 l 3.699,0 c 7.723,0 14.813,-7.086 14.813,-14.82 l 0,-187.481 c 0,-9.894 -7.39,-14.511 -14.813,-14.511"
           inkscape:connector-curvature="0" />
        <path
           id="path3110"
           style="fill:#6eb122;fill-opacity:1;fill-rule:nonzero;stroke:none"
           d="m 1395.4,595.266 c 0,-7.395 -4.63,-14.817 -14.53,-14.817 l -101.77,0 c -9.9,0 -14.83,7.422 -14.83,14.817 0,7.461 4.93,14.851 14.83,14.851 l 101.77,0 c 9.9,0 14.53,-7.39 14.53,-14.851"
           inkscape:connector-curvature="0" />
        <path
           id="path3112"
           style="fill:#6eb122;fill-opacity:1;fill-rule:nonzero;stroke:none"
           d="m 1395.4,499.797 c 0,-7.395 -4.63,-14.824 -14.53,-14.824 l -101.77,0 c -9.9,0 -14.83,7.429 -14.83,14.824 0,7.422 4.93,14.851 14.83,14.851 l 101.77,0 c 9.9,0 14.53,-7.429 14.53,-14.851"
           inkscape:connector-curvature="0" />
        <path
           id="path3114"
           style="fill:#6eb122;fill-opacity:1;fill-rule:nonzero;stroke:none"
           d="m 1879.3,686.055 c 0,-7.395 -4.67,-14.817 -14.55,-14.817 l -101.76,0 c -9.9,0 -14.82,7.422 -14.82,14.817 0,7.433 4.92,14.851 14.82,14.851 l 101.76,0 c 9.88,0 14.55,-7.418 14.55,-14.851"
           inkscape:connector-curvature="0" />
        <path
           id="path3116"
           style="fill:#6eb122;fill-opacity:1;fill-rule:nonzero;stroke:none"
           d="m 1879.3,595.266 c 0,-7.395 -4.67,-14.817 -14.55,-14.817 l -101.76,0 c -9.9,0 -14.82,7.422 -14.82,14.817 0,7.461 4.92,14.851 14.82,14.851 l 101.76,0 c 9.88,0 14.55,-7.39 14.55,-14.851"
           inkscape:connector-curvature="0" />
        <path
           id="path3118"
           style="fill:#6eb122;fill-opacity:1;fill-rule:nonzero;stroke:none"
           d="m 1864.75,514.648 -252.05,-0.222 78.13,161.16 c 1.54,3.379 2.79,6.785 2.79,10.195 0,8.34 -5.88,15.125 -16.99,15.125 l -473.32,0 c -20.83,0 -29.86,-9.5 -29.86,-30.25 l 0,-114.922 -73.17,133.125 c -4.65,10.797 -12.04,10.797 -15.75,10.797 l -3.41,0 c -9.88,0 -15.74,-7.117 -15.74,-15.457 l 0,-186.863 c 0,-9.863 7.71,-14.492 15.12,-14.492 7.42,0 14.52,4.629 14.52,14.492 l 0,130.957 73.19,-133.129 c 4.94,-11.402 12.65,-12.32 16.68,-12.32 l 3.39,0 c 8.34,0 14.82,6.785 14.82,14.492 l 0,174.238 269.35,0 0,-171.144 c 0,-9.864 7.42,-14.481 14.81,-14.481 7.43,0 14.82,4.617 14.82,14.481 l 0,171.144 152.92,0 -78.44,-161.777 c -1.25,-2.492 -1.86,-4.961 -1.86,-7.727 0,-8.64 6.18,-16.98 16.38,-16.98 l 273.67,-0.117 c 9.88,0 14.55,7.429 14.55,14.824 0,7.422 -4.67,14.851 -14.55,14.851"
           inkscape:connector-curvature="0" />
      </g>
    </g>
    <g
       transform="matrix(1.3922845,0,0,-1.3922845,18.084904,975.2947)"
       inkscape:label="logo"
       id="g3274">
      <g
         id="g3276">
        <g
           clip-path="url(#clipPath3280)"
           id="g3278">
          <g
             transform="matrix(1.0180257,0,0,1.0180257,-7.4121828,-19.396827)"
             id="g3286">
            <text
               id="text3288"
               transform="matrix(1,0,0,-1,31.2,132.9)">
              <tspan
                 id="tspan3290"
                 sodipodi:role="line"
                 y="0"
                 x="0 62.602001 120.345 181.478 243.854 294.478 355.61099 413.354"
                 style="font-size:113px;font-variant:normal;font-weight:normal;writing-mode:lr-tb;fill:#000000;fill-opacity:1;fill-rule:nonzero;stroke:none;font-family:Impact;-inkscape-font-specification:Impact">CoNDyNet</tspan>
            </text>
          </g>
        </g>
      </g>
      <g
         id="g3292">
        <g
           id="g3294" />
        <g
           id="g3300">
          <g
             id="g3302"
             clip-path="url(#clipPath3296)"
             style="opacity:0.5" />
        </g>
      </g>
    </g>
  </g>
</svg>
