<?xml version="1.0" encoding="UTF-8" standalone="no"?>
<!-- Created with Inkscape (http://www.inkscape.org/) -->

<svg
   xmlns:dc="http://purl.org/dc/elements/1.1/"
   xmlns:cc="http://creativecommons.org/ns#"
   xmlns:rdf="http://www.w3.org/1999/02/22-rdf-syntax-ns#"
   xmlns:svg="http://www.w3.org/2000/svg"
   xmlns="http://www.w3.org/2000/svg"
   xmlns:xlink="http://www.w3.org/1999/xlink"
   xmlns:sodipodi="http://sodipodi.sourceforge.net/DTD/sodipodi-0.dtd"
   xmlns:inkscape="http://www.inkscape.org/namespaces/inkscape"
   version="1.0"
   width="414.46075"
   height="585.55103"
   viewBox="0 0 42012.862 59303.118"
   id="svg6785"
   xml:space="preserve"
   style="fill-rule:evenodd"
   inkscape:version="0.91 r13725"
   sodipodi:docname="northern_landmass.svg"><metadata
     id="metadata2663"><rdf:RDF><cc:Work
         rdf:about=""><dc:format>image/svg+xml</dc:format><dc:type
           rdf:resource="http://purl.org/dc/dcmitype/StillImage" /><dc:title /></cc:Work></rdf:RDF></metadata><sodipodi:namedview
     pagecolor="#ffffff"
     bordercolor="#666666"
     borderopacity="1"
     objecttolerance="10"
     gridtolerance="10"
     guidetolerance="10"
     inkscape:pageopacity="0"
     inkscape:pageshadow="2"
     inkscape:window-width="1920"
     inkscape:window-height="1025"
     id="namedview2661"
     showgrid="false"
     inkscape:zoom="1.4481939"
     inkscape:cx="207.22651"
     inkscape:cy="292.82149"
     inkscape:window-x="0"
     inkscape:window-y="0"
     inkscape:window-maximized="1"
     inkscape:current-layer="Layer_x0020_1"
     fit-margin-top="0"
     fit-margin-left="0"
     fit-margin-right="0"
     fit-margin-bottom="0" /><defs
     id="defs6787"><inkscape:perspective
       sodipodi:type="inkscape:persp3d"
       inkscape:vp_x="0 : 859.8656 : 1"
       inkscape:vp_y="0 : 1000 : 0"
       inkscape:vp_z="2045.4084 : 859.8656 : 1"
       inkscape:persp3d-origin="1022.7042 : 573.24373 : 1"
       id="perspective2665" /><style
       type="text/css"
       id="style6789" /><g
       id="s"><g
         id="c"><path
           d="M 0,0 0,1 0.5,1 0,0 z"
           transform="matrix(0.951056,0.309017,-0.309017,0.951056,0,-1)"
           id="t"
           inkscape:connector-curvature="0" /><use
           transform="scale(-1,1)"
           id="use9"
           x="0"
           y="0"
           width="207338"
           height="174170"
           xlink:href="#t" /></g><g
         id="a"><use
           transform="matrix(0.309017,0.951056,-0.951056,0.309017,0,0)"
           id="use12"
           x="0"
           y="0"
           width="207338"
           height="174170"
           xlink:href="#c" /><use
           transform="matrix(-0.809017,0.587785,-0.587785,-0.809017,0,0)"
           id="use14"
           x="0"
           y="0"
           width="207338"
           height="174170"
           xlink:href="#c" /></g><use
         transform="scale(-1,1)"
         id="use16"
         x="0"
         y="0"
         width="207338"
         height="174170"
         xlink:href="#a" /></g></defs><g
     transform="translate(-91369.171,-33842.171)"
     id="Layer_x0020_1"><polygon
       points="117560,72062.6 117353,72127.9 117378,72334.6 117288,72558.4 116981,72639.9 116967,72815.6 117287,73053.6 117829,73240.5 117829,73240.5 118077,73205.3 118138,73156.4 118174,72948 117729,72634.4 117750,72554.3 118073,72407.2 118110,72263.4 117964,72153.9 "
       id="polygon7019"
       style="fill:#244094;fill-opacity:0.17254902;stroke:#000000;stroke-width:190.06399536;stroke-miterlimit:4;stroke-opacity:0.45882353;stroke-dasharray:none" /><g
       id="g2551"
       style="fill:#244094;fill-opacity:0.30980392;stroke:#000000;stroke-opacity:0.45882353"><path
         d="m 1181.375,334.84375 c -0.077,0.0192 -0.1552,0.0884 -0.1875,0.25 -0.5172,1.81032 1.8158,3.87717 0.7813,5.6875 -0.7759,1.29309 -4.915,-0.52044 -4.6563,1.03125 0,2.06991 3.0959,2.59914 4.9063,3.375 0.5172,0.25862 2.3297,-0.26723 1.8124,0.25 -1.294,1.5517 -3.8803,1.81469 -4.6562,3.625 -1.0345,1.5517 -0.25,3.87719 -0.25,5.6875 0,1.29405 3.3782,2.09052 2.3438,3.125 -1.5518,1.29309 -4.1585,2.57435 -5.9688,1.28125 -1.5517,-0.77585 0.5345,-4.14441 -0.5,-5.4375 -0.7759,-1.03447 -3.1164,1.81669 -3.375,0.78125 -0.2586,-1.81032 2.3265,-2.57329 2.8438,-4.125 0,-0.51722 -1.8125,-7.24999 -1.8126,-7.25 -2.8457,1.55271 -6.9795,18.60352 -8.5312,23 -0.7759,2.32852 2.0798,0.54108 1.5625,2.09375 -0.5172,1.29309 -1.3039,2.32328 -1.5625,3.875 -0.2586,1.03447 0.5259,2.56791 -0.25,3.34375 -4.3975,4.39745 -3.875,-3.07651 -3.875,-3.59375 0.2586,-1.5517 2.833,-3.88902 1.2812,-4.40625 -4.3974,-1.29405 3.3621,-2.32871 0,-4.65625 -0.7758,-0.51723 -2.3265,0.77584 -2.8437,0 0,-0.25862 0.2641,-0.24999 0.7813,-0.25 -0.2587,0 -0.5313,-0.0226 -0.5313,-0.28125 -0.2586,-0.77591 6.736,-13.44289 6.2187,-14.21875 -0.2586,-0.77585 -14.4742,-2.06893 -15.25,0 -0.5172,2.06894 2.8157,4.12717 1.7813,5.9375 -0.5172,1.29309 -4.1164,-2.30172 -4.375,-0.75 0,0.77585 8.0032,3.60994 6.9687,5.9375 -0.5172,0.77585 -8.279,0.01 -6.4687,4.40625 0.5182,1.29309 4.6681,1.28665 3.375,2.0625 -0.7759,0.77585 -4.1412,-1.56895 -6.4687,0.5 5.9492,-12.41455 -9.5744,-1.28107 -8.2813,3.375 0.5182,1.5517 2.8632,2.33193 4.1563,3.625 0.7758,-1.29309 1.5452,-2.34054 2.0624,-3.375 0,0.25862 1e-4,0.27264 0,0.53125 -1.0344,4.91372 -0.7845,6.44831 0.25,8 1.0345,1.81129 -2.0625,1.3093 -2.0624,2.34375 0,0.77585 1.2866,1.02264 2.0624,1.28125 0.7759,0.25862 2.3438,-0.77584 2.3438,0 0.2586,1.29309 -0.5194,3.11639 -1.8125,3.375 -6.9836,0.51723 -2.6067,-6.99677 -5.9687,-8.03125 -1.2941,-0.51723 -3.1046,-0.25 -4.6563,-0.25 -0.5172,-0.25862 -1.5453,-0.76725 -2.0625,-0.25 -0.5172,0.25862 0.2673,1.8125 -0.25,1.8125 -1.8103,-0.51723 -2.846,-2.86639 -4.6562,-3.125 -2.07,-0.51723 -9.5657,1.29866 -8.5313,5.4375 2.0689,7.49989 9.5506,1.03124 10.8437,1.03125 0.5173,-0.25862 1.2985,5.19088 0.7813,8.8125 0,0.51723 -1.0312,0.52262 -1.0313,0.78125 0.5173,1.29309 4.1368,3.35237 2.8438,3.09375 -1.2931,-0.51723 -2.0593,-2.0679 -3.0938,-2.84375 -1.293,-1.03447 -2.8621,-1.30928 -4.1562,-2.34375 -0.5172,-0.51723 -0.264,-1.54526 -0.7812,-2.0625 -0.5173,-0.51723 -1.264,-1.29849 -1.7813,-0.78125 -1.5517,1.81032 0.5064,5.7069 -1.5625,7 -7.7595,5.17234 -1.025,-11.90699 -7.75,3.09375 -1.5517,3.62063 2.3147,5.69829 4.125,7.25 0.5172,0.51723 2.5883,1.01401 1.8125,1.53125 -1.5517,0.77585 -3.8848,-0.25322 -5.4375,0.78125 -1.5517,1.03447 0.7802,10.08294 -3.875,8.53125 -1.8103,-0.51723 1.5453,-3.59592 2.0625,-5.40625 0,-0.51727 1.0345,-15.0108 0,-16.5625 -3.8793,-4.65607 -6.4548,6.4569 -5.9375,7.75 0.5172,1.5517 4.125,1.29109 4.125,2.84375 -0.2586,1.5517 -3.5992,-0.51182 -4.375,0.78125 -1.0345,1.29309 0.2586,3.35456 0,4.90625 -0.2586,0.77585 -1.0452,2.07972 -1.5625,1.5625 0,-0.51718 2.3103,-12.68428 0.5,-13.71875 -2.0699,-1.5517 -6.4656,1.05608 -7.5,3.125 -5.6896,12.15592 9.5689,10.60472 7.5,16.8125 -0.5172,1.03447 -1.2857,-2.34819 -2.0625,-3.125 -1.5517,-1.29309 -3.3631,-1.0194 -4.6562,-2.3125 -1.2931,-1.29309 -1.0335,-4.65626 -2.8438,-4.65625 -1.8103,-0.25862 -3.6068,2.06469 -4.125,3.875 -0.5172,1.81032 7.5086,4.65624 7.25,4.65625 -1.8103,0.77585 -4.1584,1.81571 -5.9688,0.78125 -1.8112,-1.03447 -2.3319,-8.28768 -3.625,-6.21875 -0.5172,1.29309 -1.0313,2.60455 -1.0312,4.15625 -0.2586,-4.13787 -0.7576,-9.05711 -3.3438,-8.28125 -1.5517,0.51723 -0.7921,3.87177 -2.3437,4.90625 -1.5517,0.77585 -3.6131,-1.55711 -4.9063,-0.78125 -1.0344,0.77585 2.8396,0.27804 3.875,1.3125 2.5862,3.36299 -3.348,1.78247 -6.9687,3.59375 -0.7759,0.51723 2.8437,-0.7542 2.8437,0.28125 0.2587,1.81032 -2.6109,3.10456 -2.0937,4.65625 0.2586,1.03447 3.6422,-1.31572 3.125,-0.28125 -0.5172,2.06894 -3.889,2.33732 -4.4063,4.40625 0,1.29309 2.332,1.28665 3.625,2.0625 1.5518,-2.32755 2.0691,-5.68428 4.6563,-6.71875 1.5517,-1.03447 3.3459,0.53124 5.1563,0.53125 0.2586,-0.25862 0.5312,-1.31467 0.5312,-3.125 0.5172,1.5517 1.7985,3.10454 1.2812,4.65625 -0.5172,2.06894 -5.6788,0.27482 -5.9374,2.34375 -0.5173,2.32755 0.2521,5.17567 2.0624,6.46875 0.2587,0.25862 1.5712,0.24138 1.3126,0.5 -1.2931,1.03447 -4.4063,0.51079 -4.4063,2.0625 0,0.51723 0.2414,0.52263 0.5,0.78125 -0.2586,0 -0.5,0 -0.5,0 -1.2931,0 -2.5937,1.30929 -2.5937,2.34375 0.5172,3.36299 8.5236,1.29108 5.9374,2.84375 -1.8103,1.03447 -4.1175,1.53986 -6.1874,1.28125 -1.0345,0 -1.5594,-2.06251 -2.5938,-2.0625 -0.7759,0 -1.5593,0.51402 -2.5938,1.03125 0,-1.29405 -0.7662,-3.61534 -3.0937,-6.71875 -4.3984,-5.94819 -3.0992,6.45693 -3.875,7.75 -0.2586,0.51723 -0.7953,-1.28987 -1.3125,-1.03125 -0.7759,0.25862 -1.5453,1.02803 -2.0625,2.0625 1.2931,-5.69053 2.3372,-17.33278 -3.0937,-11.125 -7.5009,8.01812 6.4622,6.48294 1.0312,11.65625 -1.2931,1.29309 -3.8934,0.76941 -5.1875,2.0625 -0.5172,1.03447 0.7898,2.34052 0.5313,3.375 -0.2587,1.81032 -1.818,3.62718 -2.5938,5.4375 0,0.25862 0,0.514 0,1.03125 0.7759,-1.03447 1.5583,-2.09052 2.5938,-3.125 0.7758,-0.77585 1.8178,-1.53664 2.5937,-2.3125 0.7759,-0.77585 0.2468,-2.86639 1.2813,-3.125 1.293,-0.25862 2.8631,-0.4946 4.1562,0.28125 1.0345,0.77585 0,4.65181 1.0312,3.875 1.5518,-1.03447 0.2382,-4.39443 1.5313,-5.6875 0.7768,-0.77585 2.3319,-1.05389 3.625,-1.3125 -0.5172,1.03447 -0.7673,2.34055 -0.25,3.375 0.7759,1.5517 3.3545,1.28987 4.9063,1.03125 1.0344,0 1.0366,-1.55387 1.8124,-1.8125 0.5173,-0.25862 1.3125,0.51401 1.3126,1.03125 0.2586,0.51724 -1.2985,1.05387 -0.7813,1.3125 2.5872,0.51723 9.042,-10.36284 10.5937,0.5 0.2587,1.29309 -2.0732,1.30387 -3.625,1.5625 -1.0344,0 -1.8006,-1.56249 -3.0937,-1.5625 -4.6561,0 5.9449,10.35881 1.0313,8.03125 -6.9837,-3.36202 2.3401,-8.81033 -8.7813,-7 -2.0689,0.25862 -5.4289,0.0238 -5.6875,2.09375 -0.1943,0.67887 0.2006,1.02119 0.875,1.25 1.1239,0.38136 2.9418,0.41595 3.75,1.0625 0.5172,0.51723 0.5226,1.28664 0.7812,2.0625 -1.4745,-1.2902 -3.1862,-2.6955 -4.5312,-3.125 -0.5422,-0.17315 -1.0344,-0.19166 -1.4062,0.0312 -3.8793,1.81036 9.0409,13.19187 5.9374,16.8125 -1.1314,1.35774 -5.6118,-4.80942 -6.7187,-6.71875 0.5173,5.68957 -6.2059,3.08088 -10.3437,7.21875 0.1158,-0.20689 0.6637,-1.07435 0.25,-1.28125 -1.2941,-1.03447 -5.6908,0.0108 -4.6563,1.5625 0.5172,0.77585 3.6196,-1.0571 2.8437,-0.28125 -1.0344,1.03447 -3.6077,0.0108 -4.125,1.5625 -0.7758,1.81032 -0.529,4.66164 1.2813,5.4375 1.5517,0.77585 5.9742,-4.66704 6.75,-6.21875 0.2586,-0.51723 -0.7985,-1.53125 -0.2813,-1.53125 0.5173,0 8.5291,2.58312 6.7188,5.6875 -1.0345,1.29309 -8.2758,-2.32853 -7.5,0 0,0.25862 1.0398,-0.25862 0.7812,0 -0.2586,1.29309 -2.5666,-0.27367 -1.5312,2.3125 1.8103,4.91373 3.0895,3.10558 6.9688,1.8125 0.7758,-0.25862 2.8609,-1.55711 2.3437,-0.78125 -1.0345,1.5517 -4.1476,1.81468 -4.4063,3.625 -0.5172,2.06894 2.0766,3.62719 2.5938,5.4375 0.7759,2.06893 -2.0733,-3.63579 -3.625,-5.1875 -1.0345,-1.03447 -2.3319,-1.53125 -3.625,-1.53125 -1.8113,0.25862 -3.3718,3.09697 -4.4062,2.0625 -1.2931,-1.03447 3.8877,-2.59054 2.5937,-3.625 -3.8793,-2.84478 -4.3858,4.91826 -5.9375,8.28125 -0.7759,1.29309 -3.8783,2.84916 -2.8438,3.625 2.5862,1.5517 5.6639,-0.52803 8.25,-1.5625 1.0345,-0.51723 1.5679,-2.32112 2.3438,-2.0625 0.7759,0.25862 -1.5581,1.79528 -0.7812,2.3125 0.2586,0.25862 0.5225,0.52265 0.7812,0.78125 -0.2586,0.25862 -0.2727,0.27264 -0.5312,0.53125 -1.2941,0.77585 0.5214,4.40626 -1.0313,4.40625 -1.5517,0.25862 1.044,-3.88901 -0.25,-4.40625 -2.0689,-1.03447 -8.2813,2.58514 -8.2813,2.84375 0.2587,1.81032 3.8696,2.59497 3.0938,4.40625 -0.5172,1.81032 -3.3373,2.82111 -5.4062,2.5625 -1.2941,-0.25862 -0.2545,-2.5679 -1.0313,-3.34375 -0.2586,-0.51723 -0.7812,0.77262 -0.7813,1.03125 0,0.51723 -1.3039,5.93314 -1.5624,2.3125 0,-0.51723 1.2984,-1.53126 0.7812,-1.53125 -6.4654,-2.06894 -1.0281,1.79527 -2.0625,2.3125 -1.0345,0.51723 -3.8922,-0.25322 -3.375,0.78125 1.0345,1.81032 8.8091,4.38578 5.1875,5.9375 -6.4654,2.58713 -10.346,-1.53853 -12.1562,8.03125 -0.5173,2.06894 -1.2964,6.20151 1.0312,6.71875 1.8103,0.25862 3.3459,-0.50864 5.1562,-0.25 0.7759,0 2.3298,-0.009 1.8126,0.25 -1.5518,1.29309 -15.5204,3.11316 -6.4688,4.40625 2.8457,0.25862 4.6638,-4.39222 7.25,-3.875 0.5172,0.25862 0.014,1.81253 0.5312,1.8125 0.2587,0 0.4915,-0.28123 0.75,-0.28125 0,0 1e-4,0.0227 0,0.28125 0.2587,1.03447 3.6369,2.56252 2.3438,2.5625 -1.5517,0 -2.3233,-2.04524 -3.875,-2.5625 -3.6206,-0.77585 -3.8903,2.55929 -6.2188,3.59375 -1.293,0.51723 -9.8254,-0.76828 -5.6874,2.59375 1.293,1.03544 3.6131,-1.02587 4.9062,-0.25 1.2931,0.77585 1.0444,3.11315 1.5625,4.40625 0.2586,1.03447 1.8071,3.10235 1.0313,2.84375 -2.07,-0.51723 -3.1186,-3.88361 -5.1876,-3.625 -1.5517,0 -3.8523,5.94832 -3.5937,7.5 0.2586,1.03447 1.0366,2.30926 1.8125,3.34375 0.2586,0.25862 2.0485,0.0226 1.5312,0.28125 -1.8103,1.03447 -5.1616,-0.006 -5.9374,2.0625 -0.5173,1.03447 -0.5313,1.53665 -0.5313,2.3125 -2.0699,0.25862 -2.0711,7.51941 -1.8125,8.8125 0.2586,0.77585 1.2953,-0.77262 1.8125,-1.03125 1.2931,-1.29309 2.3319,-2.86314 3.625,-4.15625 -0.5172,-1.03447 -1.0226,-1.54527 -1.2813,-2.0625 1.8104,0 4.1164,-0.52585 4.375,0.25 2.5862,4.39745 -6.7015,4.41924 -7.2187,7.78125 0,1.03447 1.8093,-0.52265 2.8437,-0.78125 1.2931,0 2.582,0.2586 3.875,0 1.0345,-0.51723 3.0938,-3.10556 3.0938,-1.8125 -1.2931,7.49989 -6.4645,5.16058 -10.3438,8.78125 -0.5182,0.51723 0.5173,1.82652 0,2.34375 -1.294,0.51723 -9.3179,0.002 -10.0937,1.8125 -0.2586,0.51723 1.5625,-0.0172 1.5625,0.5 l 0,0.28125 c 0.7759,-0.25862 1.3039,-0.26723 1.5625,0.25 0.7758,1.03447 -10.348,7.74881 -6.4687,5.9375 1.293,-0.51723 2.3092,-1.28666 3.3437,-2.0625 -0.2586,0.51723 -0.7726,1.54205 -1.0313,3.09375 -2.3285,9.82842 6.9806,0.25337 5.6876,3.875 -0.7759,1.5517 -4.1305,1.29203 -4.9063,2.84375 -0.5172,1.03447 3.611,0.28668 3.0937,1.0625 -1.0344,1.29309 -3.1036,1.79851 -4.6562,1.28125 -2.5862,-1.03447 -3.3373,-6.98056 -5.4062,-5.6875 -2.06899,1.29309 -5.94936,3.34593 -4.6563,5.15625 0.77585,1.29309 4.1369,2.58514 2.8437,2.84375 -1.81027,0.51723 -3.37617,-2.57976 -5.18745,-2.0625 -1.03447,0.25862 2.60239,1.55931 2.34375,2.59375 -0.51723,1.55267 -2.84915,1.30928 -3.625,2.34375 -0.77585,1.03447 -0.014,2.56792 -0.53125,3.34375 -0.51723,1.03447 -2.31788,-0.77583 -3.09375,0 -0.25862,0.77585 -0.53125,1.5679 -0.53125,2.34375 0,0.37744 0.81684,0.47243 1.0625,0.5 -0.77585,0.51723 -2.35778,-0.77583 -2.875,0 -1.03447,1.5517 -0.77263,3.37717 -1.03125,5.1875 0,0.51723 -0.23597,1.03123 0.28125,1.03125 1.03447,0.25862 4.11958,-1.30708 3.34375,-0.53125 -1.03447,1.5517 -3.10453,1.5679 -4.65625,2.34375 -2.84576,1.81031 -8.5355,5.16702 -4.65625,6.71875 2.58616,1.03544 5.43968,-3.09916 7.25,-3.875 0.25862,-0.25862 -1.04851,1.03122 -0.53125,1.03125 0.38793,0.19396 1.22118,-0.33028 1.5,-0.5 -1.55693,1.2556 -4.07668,1.55391 -4.84375,3.34375 -0.5182,1.03544 1.29529,1.80931 1.8125,2.84375 0.51724,1.03447 -0.0118,3.11637 1.28125,3.375 2.06894,0.51723 8.55067,-5.18334 9.84375,-6.21875 1.29309,-1.03447 2.8319,-1.5679 4.125,-2.34375 0.2586,-0.25862 1.0398,-0.50003 0.7813,-0.5 -1.8104,-0.77585 -4.90306,0.24785 -5.93755,-1.5625 -0.77682,-1.29309 2.30927,-2.06787 3.34375,-2.84375 2.069,-1.81032 11.4008,-14.47065 10.625,-4.125 -0.2586,2.06894 -4.9343,1.53342 -5.9688,3.34375 -1.293,1.81032 4.9289,1.80604 5.1876,3.875 0.5172,2.58617 -10.09918,3.10576 -10.87505,6.46875 -0.25862,1.03447 2.83515,-1.03446 3.09375,0 0.2586,2.06893 0,4.92569 -1.8125,6.21875 -0.25854,0 -10.84373,-2.60019 -10.84375,-0.53125 -0.25862,2.06894 3.61962,3.64884 2.84375,5.71875 -0.77585,1.29309 -2.60453,-2.61638 -4.15625,-2.875 -1.03447,-0.25862 -2.30385,2.09695 -2.5625,1.0625 -0.25862,-1.55267 2.0625,-2.35455 2.0625,-3.90625 0,-1.29309 -1.8265,-1.80928 -2.34375,-2.84375 -0.77585,-1.29309 0.0214,-4.39222 -1.53125,-3.875 -2.06894,0.25862 -2.07331,3.38578 -3.625,4.9375 -1.29309,1.5517 -4.15626,2.06471 -4.15625,3.875 -0.25862,1.5517 3.38039,-2.06574 4.15625,-1.03125 1.03447,1.03447 -2.58191,1.01401 -3.875,1.53125 -0.77585,0.51723 -1.54529,2.58835 -2.0625,1.8125 -1.29309,-1.55267 0.48919,-4.91164 -1.0625,-5.6875 -1.81129,-1.03446 -7.99137,3.10994 -8.25,5.4375 -1.5517,11.1215 5.68427,-4.9103 6.71875,3.625 1.0345,6.98266 -9.30387,1.53128 -9.5625,1.53125 -2.58714,-0.51723 0.77586,2.61098 0,2.09375 -0.77585,-0.25862 -2.61099,-1.80709 -2.09375,-1.03125 0.51723,1.81032 1.03244,4.12178 2.84375,5.15625 1.03447,0.5182 2.08192,-1.30389 3.375,-1.5625 0.51723,-0.25862 -1.28984,0.77261 -1.03125,1.03125 0.51723,0.51723 2.82974,-0.51726 2.3125,0 -1.03447,0.77682 -3.87498,-0.23155 -3.875,1.0625 0.25862,2.06894 5.18213,2.84596 4.40625,4.65625 -1.03447,1.81032 -4.39439,-0.5194 -5.6875,-1.8125 -1.03447,-0.77585 0.51726,-2.33957 0,-3.375 -0.51723,-1.29309 -2.31788,-1.27802 -3.09375,-2.3125 -0.51723,-0.77585 0.2446,-2.60239 -0.53125,-2.34375 -1.5517,0.25862 -3.63365,1.8233 -3.375,3.375 0.25862,0.25862 0.52264,0.77262 0.78125,1.03125 -1.5517,-0.25862 -2.8233,-0.25863 -4.375,0 -1.03447,0 -1.83956,1.78985 -2.875,1.53125 -1.5517,-0.51723 -1.54206,-3.33512 -3.09375,-3.59375 -6.98266,-0.77585 -7.74785,1.02386 -5.9375,3.09375 1.29309,1.81032 4.64764,1.55606 4.90625,3.625 0.51723,3.10341 -13.17429,4.91488 2.34375,4.65625 1.81032,0 3.61854,-0.53663 5.6875,-1.3125 -2.84479,1.03447 -6.46654,3.88483 -4.65625,5.4375 1.29309,1.03447 4.3804,-1.55267 5.15625,0 0.77585,1.29309 -2.3223,2.60235 -3.875,2.34375 0,-0.25862 -3.87716,-5.97195 -5.6875,-4.9375 -1.03447,0.51723 0.50322,3.89221 -0.53125,3.375 -1.29309,-0.51723 0.2845,-3.09915 -0.75,-3.875 -3.62063,-2.84479 -6.72413,2.57115 -7.5,2.3125 -0.51723,0 -0.26402,-1.27266 -0.78125,-1.53125 -1.03447,-0.51723 -2.3405,-0.53985 -3.375,-0.28125 -0.77585,0 -1.8211,0.77264 -1.5625,1.03125 1.03447,0.77682 8.01843,3.12721 9.3125,4.9375 1.03447,1.29309 0.51941,3.62177 1.8125,4.65625 1.81032,1.29309 5.45153,-0.5377 5.96875,1.53125 0.51723,1.81129 -3.88578,-1.01183 -5.4375,0.28125 -0.51723,0.25862 -0.77266,1.01402 -1.03125,1.53125 0,-4.13883 -0.52062,-8.51726 -3.625,-8 -9.05159,1.55171 -3.37825,4.92042 -2.34375,10.09375 0,0.51723 -0.25541,1.53123 -1.03125,1.53125 -0.51724,0 0.78127,-1.01404 0.78125,-1.53125 -0.51723,-1.5517 -1.81787,-2.60359 -2.59375,-4.15625 -0.51723,-1.03447 0.003,-3.11636 -1.03125,-3.375 -2.32755,-0.51723 -6.19614,1.29745 -5.9375,3.625 0,1.81129 0.51941,3.63577 1.8125,5.1875 0.77682,1.03447 4.64222,0.51941 4.125,1.8125 -0.77585,1.5517 -3.35356,-0.005 -4.90625,-0.78125 -0.77585,-0.51723 -0.25542,-2.31252 -1.03125,-2.3125 -1.5517,0 -0.79205,3.35779 -2.34375,3.875 -0.25862,0 0.28126,-0.77265 0.28125,-1.03125 0,-1.81032 1.79306,-4.15303 0.5,-5.1875 -1.03447,-1.03544 -0.51079,3.87499 -2.0625,3.875 -2.06894,0 -3.08729,-4.13362 -5.15625,-3.875 -1.55267,0.25862 1.80168,4.39765 0.25,4.65625 -1.55267,0.25862 -1.5679,-2.83189 -2.34375,-4.125 -0.51723,-0.77585 -3.09376,-1.8167 -3.09375,-0.78125 0,2.58617 5.17348,3.60995 4.65625,5.9375 -0.5182,1.81032 -4.66487,1.81466 -4.40625,3.625 0.25862,1.5517 3.10359,-0.78124 4.65625,-0.78125 1.29309,0 2.3319,0.78123 3.625,0.78125 3.62067,0.51723 11.64442,4.38365 12.9375,4.125 7.50087,-0.51723 -5.95879,-3.07975 3.09375,-2.5625 1.03447,0 3.1196,0.50537 2.34375,1.28125 -4.65508,4.39649 -10.86219,-1.02143 -12.15625,0.53125 -0.51723,0.51723 2.56573,2.31247 1.53125,2.3125 -1.29405,-0.25862 -1.80066,-2.85238 -3.09375,-2.59375 -1.03447,0.25862 -0.50539,4.40948 -1.28125,3.375 -0.77585,-1.03447 1.55708,-2.84051 0.78125,-3.875 -1.5517,-2.32852 -5.18645,-2.84372 -8.03125,-2.84375 -3.88023,0.25864 -10.07538,6.98173 -5.9375,10.34375 1.29309,1.29309 3.60453,0.25539 5.15625,1.03125 1.29405,0.77585 -5.17346,0.51081 -4.65625,2.0625 1.55175,3.62161 13.69718,0.5162 10.59375,2.84375 -3.10341,2.06894 -7.4763,-1.02262 -10.0625,-1.28125 -1.5517,0 -8.02571,2.83729 -2.59375,4.90625 1.29309,0.51723 2.33192,-1.28126 3.625,-1.28125 2.06894,-0.25862 6.19613,-1.56032 5.9375,0.25 0,2.06894 -3.86855,-0.26723 -5.9375,0.25 -1.81032,0.51723 -4.1444,1.28345 -5.4375,3.09375 -0.51723,0.77585 3.35777,5.18749 3.875,5.1875 2.84478,0.77585 6.21772,0.26185 9.0625,-1.03125 0.51723,-0.25862 0.005,-1.8211 0.78125,-1.5625 2.06897,0 10.08515,3.63365 10.34375,3.375 0.51723,-0.51723 1.28663,-1.81371 2.0625,-3.625 0.25862,0.25862 0.25,0.25001 0.25,0.25 1.81032,1.03544 3.87718,1.55928 5.6875,2.59375 0.25862,0.25862 0.0131,1.28985 0.53125,1.03125 2.58617,-0.25862 5.68752,-1.02265 5.6875,-1.28125 0.51723,-1.29314 -1.55918,-13.21119 4.90625,-10.625 2.58713,1.03446 -4.65622,3.90523 -4.65625,6.75 0,1.03447 0.27805,2.58514 1.3125,2.84375 1.5517,0.51723 4.89763,-2.8416 5.15625,-1.03125 1.81026,9.05257 -11.36636,0.50438 -11.625,4.125 -0.25862,3.36201 6.44495,7.51304 1.53125,8.03125 -8.01809,0.51718 -0.24912,-12.69492 -7.75,-10.625 -5.9482,1.5517 -2.59592,6.21333 -4.40625,5.4375 -1.81032,-0.77585 -2.06374,-3.34917 -3.875,-4.125 -5.68956,-2.84576 -10.86638,3.35236 -11.125,3.09375 -2.32755,0 -4.37719,-3.88683 -6.1875,-2.59375 -1.29309,0.77585 -3.10879,6.73814 -0.78125,8.03125 1.81031,1.03544 5.18108,-1.55386 7.25,-1.8125 0.51723,-0.25862 1.00958,0.77263 0.75,1.03125 -1.5517,1.29309 -4.63901,1.28247 -5.15625,3.09375 -0.25862,0.51724 10e-6,1.05388 0,1.3125 -1.5517,-1.29309 -3.09595,-2.84375 -4.90625,-2.84375 -1.29405,0.25862 3.3664,4.88901 3.625,5.40625 0.51724,1.03447 -0.0118,3.62503 1.28125,3.625 0.75816,-0.25272 1.74794,-1.27946 3,-2.53125 -0.14825,-0.0225 -0.31668,-0.40854 -0.59375,-0.84375 0.16164,0.22629 0.3082,0.40195 0.4375,0.53125 0,0.25862 0.25002,0.24998 0.25,0.25 2.06894,-2.32755 4.389,-4.90728 4.90625,-2.0625 -2.06894,1.03447 -5.68751,1.54744 -5.6875,3.875 0,1.03447 3.3772,4.9363 5.1875,3.125 -0.25862,1.29405 -0.77803,2.30387 -1.8125,2.5625 -4.65607,1.5517 -8.53984,-0.50644 -8.28125,1.5625 0.51723,2.06894 1.28665,4.12719 2.0625,5.9375 3.1034,5.69052 4.91286,-5.66167 7.5,-6.4375 2.32755,-0.51723 -1.80928,4.11856 -2.84375,6.1875 -1.03447,2.58714 0.25984,1.8105 1.8125,4.65625 0.25862,0.77585 0.005,3.61961 0.78125,2.84375 1.5517,-1.5517 1.02805,-4.1176 2.0625,-6.1875 0.77585,-1.03447 1.55068,-2.34917 2.84375,-3.125 0.51723,-0.51724 1.29524,0.78126 1.8125,0.78125 -0.51723,0.77585 -1.03986,1.54525 -0.78125,2.0625 0,1.29405 3.63364,1.04207 3.375,2.59375 -0.25862,1.29309 -3.11315,0.50542 -4.40625,1.28125 -0.51723,0.51723 -1.014,1.30928 -1.53125,2.34375 0,0.51723 0.76726,1.30389 0.25,1.5625 -1.03447,0.77585 -2.34053,-0.27582 -3.375,0.5 -0.77585,0.25862 -0.23274,1.54526 -0.75,2.0625 -0.25862,0.51723 -1.82109,0.27265 -1.5625,0.53125 8.01808,7.24225 2.84926,0.26401 11.125,0.78125 -0.23124,0.39709 -9.84374,4.65977 -9.84375,4.90625 -0.25862,1.03447 3.3782,1.02264 2.34375,1.28125 -0.51723,0.25862 -1.29524,-0.51723 -1.8125,0 -0.51723,0.25862 0.26725,1.82113 -0.25,1.5625 -1.29405,-0.25862 -2.08191,-3.08838 -3.375,-2.3125 -1.81032,0.77585 -1.29205,4.11319 -2.84375,5.40625 -1.03447,0.77585 -4.15625,-1.54307 -4.15625,-0.25 0,0.77585 0.78666,1.29524 1.5625,1.8125 1.03447,0.5182 2.07652,1.03663 2.59375,1.8125 0.77585,1.29309 -0.52908,4.65625 1.28125,4.65625 3.36202,0.25862 2.07449,-7.77803 5.4375,-8.8125 2.06894,-0.51723 5.16164,0.0248 5.9375,2.09375 0.51723,1.81129 -3.86639,2.30609 -4.125,4.375 0,2.32755 0.52803,2.3556 1.5625,1.0625 1.55169,1.5517 8.78449,-1.82758 7.75,0.5 -0.77585,1.81032 -3.88582,1.02804 -5.4375,2.0625 -1.29309,0.51723 -2.5765,1.30066 -3.09375,2.59375 -0.25862,0.77585 2.57972,0.26404 2.0625,0.78125 -1.03447,1.29405 -4.91484,0.78247 -4.65625,2.59375 0.51724,1.29309 0.76404,2.58191 1.28125,3.875 -0.51723,-0.51723 -1.014,-1.04851 -1.53125,-0.53125 -1.29405,0.51723 -1.55931,3.90084 -2.59375,3.125 -2.06894,-0.77585 -0.52483,-5.20153 -2.59375,-5.71875 -1.81032,-0.51723 0.2586,3.38581 0,4.9375 -0.51723,1.81032 -2.31249,2.82234 -2.3125,4.375 -0.25862,1.81032 2.84596,8.55927 4.65625,9.59375 1.03447,0.51723 2.56788,-0.0258 3.34375,0.75 1.55169,1.03447 3.36535,5.70693 6.46875,7 1.5517,0.77585 3.1036,1.82114 4.65625,1.5625 1.29309,-0.25862 1.02802,-2.58511 2.0625,-2.84375 1.03447,-0.25862 2.85234,0.74676 2.59375,1.78125 -0.77585,1.81032 -9.3037,4.68011 -4.90625,6.75 2.06893,0.77585 4.14984,1.53988 6.21875,1.28125 1.5517,0 3.09916,-3.35657 3.875,-2.0625 0.51723,1.5517 -3.87821,2.58194 -2.84375,3.875 1.03447,1.29309 3.09499,-1.56248 4.90625,-1.5625 3.62064,0 2.85135,2.33295 5.4375,0.78125 0.77585,-0.25862 1.03663,-1.27264 1.8125,-1.53125 1.03447,-0.51723 2.83958,0.77584 3.875,0 1.29309,-1.03447 0.50217,-4.42024 2.3125,-4.9375 1.81032,-0.51723 2.07327,3.89222 3.625,3.375 2.06894,-0.25862 1.82329,-3.61314 3.375,-4.90625 0.51723,-0.51723 1.2943,1.01722 1.8125,0.5 0.25862,-0.25863 6.98815,-8.28345 8.28125,-10.09375 0.25862,-0.51723 -0.78984,-1.01404 -0.53125,-1.53125 1.29309,-5.43096 3.35357,8.26056 4.90625,-2.34375 0.25862,-1.03447 -3.08833,-1.27802 -2.3125,-2.3125 1.29405,-1.29309 4.64444,-0.0108 5.9375,-1.5625 0.77585,-0.77585 -2.07111,-1.80927 -1.8125,-2.84375 0.77585,-2.58617 7.75863,-3.09912 7.5,-3.875 -0.77585,-1.81032 -4.11961,-2.84592 -3.34375,-4.65625 0.77585,-1.29309 3.08191,1.53664 4.375,2.3125 1.03544,0.77585 -0.26283,3.37501 1.03125,3.375 10.86191,0 2.60353,-2.8427 7,-5.6875 0.77585,-0.51723 -0.53448,2.84376 0.5,2.84375 2.06894,0 -0.24783,-4.38701 1.5625,-7.75 0.51723,-0.51723 1.04526,1.03123 1.5625,1.03125 0.5182,0 0.50001,-0.77264 0.5,-1.03125 1.5517,-3.62063 0.007,-0.78781 -2.0625,-6.21875 -0.51723,-1.29309 1.0485,-3.62181 0.53125,-4.65625 -0.77585,-1.81032 -3.38361,-3.08732 -3.125,-5.15625 0.25862,-1.29309 2.84913,1.01944 3.625,2.3125 0.51723,1.29309 -0.25864,3.10453 0,4.65625 0,0.25862 0.27263,0.53125 0.53125,0.53125 6.4664,-4.39747 -4.65389,-12.43747 1.8125,-12.4375 1.81032,0 -0.53987,3.38579 -0.28125,4.9375 0.51723,2.58616 1.29528,4.91285 1.8125,7.5 0,0.25862 0.28128,0.51399 0.28125,1.03125 -0.51723,-0.51722 -1.05172,3.35992 0.5,5.6875 0,0 1.5625,-1.55172 1.5625,0 0,1.03447 -1.55708,2.5679 -0.7813,3.34375 8.5354,8.0181 5.6931,-4.66035 11.125,3.875 0.7759,1.03447 2.3158,3.13043 1.2813,3.90625 -0.2586,0.25862 -0.2414,0.24998 -0.5,0.25 0.7759,2.58617 1.7975,5.17549 4.125,1.8125 5.6905,-8.01715 -1.5517,-18.37514 0,-23.03125 0.5172,-1.81032 3.0991,-2.0733 3.875,-3.625 0.5172,-1.03447 0.017,-2.30925 -0.5,-3.34375 0,-0.77585 -1.2899,-1.04524 -1.0313,-1.5625 0.5182,-1.81129 8.7975,-2.33307 11.125,-8.28125 0,0 -0.2812,-7.50002 -0.2812,-7.5 2.8457,-14.74218 -3.8631,-11.87849 -5.1562,-23 -0.2587,-2.58617 4.8988,-1.31467 6.9687,-3.125 0,0 2.8437,-10.34378 2.8437,-10.34375 -1.0344,-6.46547 -10.8545,-5.92586 -12.4062,-11.875 -1.2931,-5.43088 2.8297,-12.68443 2.3125,-18.375 -0.5172,-3.87923 -4.6476,-7.24574 -4.9063,-11.125 -0.2595,-1.55267 1.0313,-3.35456 1.0313,-4.90625 -0.2586,-1.81032 -1.2908,-3.37718 -1.0313,-5.1875 10e-5,-1.5517 1.8125,-2.57328 1.8126,-4.125 -10e-5,-31.29463 -3.8751,23.0133 -3.875,-8.28125 0,-2.84575 3.6163,-4.65518 3.875,-7.5 0.2586,-1.03447 -1.2899,-2.08191 -1.0313,-3.375 0.7759,-4.13888 6.4817,-12.93012 9.8437,-15 10.6043,-6.72404 17.5647,5.43719 19.375,-6.71875 1.8104,-12.67317 -9.0517,-10.09487 -7.5,-14.75 2.3286,-7.24223 5.9538,-14.48608 8.2813,-21.46875 0.2586,-1.03447 1.5538,-1.27805 1.8125,-2.3125 0,0 -0.7813,-9.56249 -0.7812,-9.5625 0,-0.25862 1.3124,-8.03127 1.3124,-8.03125 0,0 -2.5937,-10.09377 -2.5937,-10.09375 1.0345,-2.32755 5.1811,0.003 7.25,-1.03125 0,0 5.6875,-4.90623 5.6875,-4.90625 0.7759,-2.32852 -2.611,-4.39121 -2.0938,-6.71875 1.5518,-4.65517 10.1046,-14.75879 11.6563,-19.15625 2.8448,-6.9827 -3.8718,-7.49694 -4.9063,-13.1875 -0.7758,-4.65511 2.0421,-1.81467 3.5938,-3.625 2.0689,-2.58616 2.0765,-6.18646 2.5938,-9.03125 0.2586,-2.06893 5.1669,-11.125 6.7187,-11.125 l 8.2813,3.625 c 5.1733,-2.06989 -1.2705,-16.80605 0.2812,-18.875 3.6216,-4.6551 21.4537,4.11421 23.7812,2.5625 8.5354,-5.43095 -0.5225,-4.89119 -0.7812,-7.21875 -0.7759,-3.10436 3.625,-5.45911 3.625,-8.5625 0,-1.81032 -0.5054,-3.60356 -1.2812,-5.15625 -0.7759,-1.29309 -4.1509,-2.08192 -3.375,-3.375 1.0344,-1.81032 3.8685,-0.51401 5.9374,-1.03125 l 0.5313,0 c -0.2586,0 -0.5226,-0.24137 -0.7813,-0.5 -0.2586,-0.51724 1.0367,-1.31251 1.8126,-1.3125 1.5517,0 2.8545,1.82111 4.4062,1.5625 0,0 -4.6582,-15.5107 5.6875,-9.5625 3.1034,1.81036 9.0334,9.83408 10.8437,12.9375 0.7759,1.29309 0.2695,3.34052 1.5626,4.375 1.0344,0.77585 2.8631,-0.5 4.1562,-0.5 4.3975,-0.77585 8.5216,2.58818 11.625,-2.84375 0.7759,-1.03447 0,-3.12178 1.0312,-4.15625 0.7759,-1.03447 10.3492,2.32652 11.125,2.84375 0.5173,0.25862 3.875,3.38363 3.875,3.125 0.2587,-1.03544 1.304,-1.55928 1.5626,-2.59375 1.0344,-4.39648 -2.3394,-5.44185 1.2812,-9.0625 3.1034,-2.84576 5.4493,3.36505 4.1562,-5.6875 -0.2586,-2.06894 -2.0678,-3.61855 -2.8437,-5.6875 -0.2586,-1.55267 -0.5312,-2.85453 -0.5313,-4.40625 0,-0.77585 0.5313,-1.28666 0.5313,-2.0625 -0.2586,-1.81037 -1.8384,-8.5248 -1.0625,-10.59375 0,-0.25862 2.8664,-5.71014 3.125,-5.96875 0.2586,-1.03544 -0.2673,-2.31791 0.25,-3.09375 4.3975,-4.91373 2.8385,0.50322 6.7188,-0.53125 4.3964,-1.29309 3.3589,-7.21554 8.5312,-8.25 l 0,-0.53125 c 0,0.25862 0.2813,0.27262 0.2812,0.53125 0.2596,-0.25862 0.4914,-0.28124 0.75,-0.28125 l 0.2813,1.3125 c 6.724,7.2413 14.7338,3.88493 19.9063,12.9375 3.3629,5.68952 -8.265,12.152 1.5624,16.03125 3.6217,1.29309 0.5001,-9.83513 0.5,-10.09375 1.2941,-3.10345 11.1326,-9.04962 6.2188,-13.1875 -2.5862,-2.32756 5.4268,1.81573 8.5312,0.78125 3.1035,-1.03447 -0.5107,-5.96231 -2.0624,-8.03125 -0.2587,0 -0.5227,-1e-5 -0.7813,0 -2.0689,0.25862 -4.1498,0.76724 -6.2187,0.25 -0.7759,0 -0.2415,-2.04848 -0.5,-1.53125 -0.5173,1.55267 -0.7899,3.09592 -0.5313,4.90625 0,0.77585 2.0797,1.5539 1.5625,1.8125 -2.0689,0.77585 -4.6574,-0.52586 -6.4688,0.25 -0.2586,0.25862 -0.5225,0.51402 -0.7812,1.03125 0.7759,-2.58616 1.3103,-6.70151 -0.5,-7.21875 -1.5517,-0.25959 -2.5992,4.63684 -3.375,3.34375 -0.7759,-1.5517 3.347,-3.36221 2.3125,-4.65625 -1.2931,-1.81032 -4.1186,-0.24138 -6.1875,-0.5 -0.2586,0 -0.5226,-0.27263 -0.7812,-0.53125 -1.2931,-0.25862 -2.332,-0.49999 -3.625,-0.5 -1.0345,0 -3.3697,1.26722 -2.5938,0.75 4.6551,-5.17234 11.6532,-1.28022 17.3438,-4.125 2.0689,-1.03447 0.7607,-4.64883 2.3124,-6.71875 0.7759,-1.29309 2.6133,-1.5679 3.9063,-2.34375 0.5172,-0.51723 1.7899,-0.51403 1.5313,-1.03125 -1.0345,-1.5517 -3.1132,-2.30929 -4.4063,-3.34375 -0.5172,-0.25862 -0.7727,-0.80387 -1.0313,-1.0625 -0.7758,-0.25862 -1.7866,-0.23276 -2.5624,-0.75 -0.2587,-0.25862 0.2359,-1.31249 -0.2813,-1.3125 -1.5527,0.25862 -2.8233,1.54528 -4.375,2.0625 -0.5172,0.25862 -2.0711,0.51724 -1.8125,0 1.2931,-3.36299 7.5041,-3.60134 -1.0312,-6.1875 -16.5525,-5.17234 8.7807,5.68212 -8.0313,4.90625 -0.2586,0 -3.3761,-11.3857 -8.0313,-5.4375 -1.0354,1.55171 -0.7596,10.34053 -0.5,11.375 0,0 3.8643,1.29205 2.3126,2.84375 -0.5173,0.25862 -1.5453,-0.50863 -2.0626,-0.25 0,-0.25862 -0.2403,-0.52265 -0.5,-0.78125 -1.5517,-1.03447 -4.1529,3.64641 -5.1874,2.09375 -1.0345,-1.81032 2.0678,-3.62719 2.8437,-5.4375 0.2586,-1.29309 1.0431,-3.88363 -0.25,-3.625 -1.8103,0.51723 -2.6046,3.36317 -4.1563,4.65625 -0.2586,0.51724 -2.0711,1.79849 -1.8124,1.28125 0.7758,-1.55162 9.3231,-12.68107 6.2187,-14.75 -4.1379,-2.84479 -5.681,-1.02584 -7.75,-0.25 -1.1315,0.67887 -2.6499,-2.19686 -3.1875,-2.0625 z M 906,753.0625 c 0,0 -0.25,0.27165 -0.25,0.53125 0.25862,-0.25959 0.2414,-0.28127 0.5,-0.28125 -0.25862,0 -0.24999,-0.25003 -0.25,-0.25 z m 0.25,0.25 c -0.25862,0.25959 -0.24138,0.27262 -0.5,0.53125 -0.51724,3.1034 -2.06356,12.67331 0.78125,7.5 1.29309,-2.58616 0.23601,-5.44414 -0.28125,-8.03125 z m 158.8125,-291.46875 c 0,-0.11271 -0.035,-0.15955 -0.094,-0.1875 0.038,0.0737 0.037,0.0901 0.094,0.1875 z m -0.094,-0.1875 c -0.068,-0.1327 -0.1563,-0.30217 -0.1563,-0.34375 -0.5172,-1.29405 0.5,-2.85453 0.5,-4.40625 0,-0.25862 -0.7726,0.25863 -1.0313,0 -0.2586,-1.03447 -0.7726,-3.61959 -1.0312,-2.84375 -0.7759,1.81032 0.5205,4.67566 -1.0312,5.96875 -0.2587,0 -10.3318,-4.66253 -6.9688,2.0625 0.5172,1.29309 2.5733,0.009 4.125,-0.25 0.7759,0 1.5592,0.23598 2.5938,-0.28125 0.2586,0 0.2413,-1.29083 0.5,-1.03125 0.5172,0.25765 -0.236,1.30387 0.2812,1.5625 0.6631,0.44209 1.8754,-0.60193 2.2188,-0.4375 z m 94.25,-99.125 c 0.5182,0 1.2953,-0.0226 1.8124,-0.28125 0.5173,-0.25862 -1.0356,0.28125 -1.8124,0.28125 z m 1.5624,-24.75 c -2.9368,0.0274 -4.7881,2.51354 1.0313,8.1875 1.2931,-1.5517 4.8836,-2.08634 4.625,-4.15625 -0.4526,-2.60234 -3.372,-4.05255 -5.6563,-4.03125 z m -21.5,17.5 c -2.3275,1.55267 -4.8858,2.33731 -6.4374,4.40625 -0.5173,0.51723 1.2671,1.54526 0.75,2.0625 -2.3276,3.36202 -1.2975,-3.09697 -3.625,-2.0625 -0.5173,0.25862 0.5172,1.52262 0,1.78125 -0.7759,0 -0.764,-1.27262 -1.2813,-1.53125 -1.0345,-0.25862 1.8157,2.56791 0.7813,3.34375 -0.7759,0.51723 -1.3094,-1.28124 -2.3438,-1.28125 -0.2586,0 0.2812,0.52264 0.2812,0.78125 0.5173,0 1.0226,0.24138 1.2813,0.5 0.7759,1.5517 -1.0453,3.38482 -1.5625,4.9375 6.2068,-1.03447 9.0551,-3.37291 11.125,-9.0625 0.5172,-1.03447 1.5539,-2.05928 1.8125,-3.09375 0,-0.25862 -1.0312,-0.27263 -1.0313,-0.53125 0,0 0.25,0.01 0.25,-0.25 z m -15.1874,7.65625 c 0.01,0.0121 0.058,0.0291 0.1874,0.0937 0.2596,0 0.5453,0 1.0626,0 -0.7766,0 -1.2743,-0.13012 -1.25,-0.0937 z m -10.6563,16.28125 c -0.1051,0.008 -0.2166,0.0601 -0.2813,0.125 -1.294,0.51723 -2.8264,1.02802 -3.3437,2.0625 -0.5172,1.29309 0.7726,2.58192 1.0313,3.875 1.0344,-1.81032 2.3178,-3.61856 3.0937,-5.6875 0.194,-0.19396 -0.1848,-0.39938 -0.5,-0.375 z m -8.5313,8.65625 c -0.2586,0.51724 10e-5,0.76401 0,1.28125 0,-0.25862 0.2501,-0.52264 0.25,-0.78125 0,0 -0.2499,-0.5 -0.25,-0.5 z m -6.5312,1.4375 c -2.9991,0.16981 -6.4116,1.3348 -7.1875,3.46875 -0.5172,1.81032 3.6132,2.32329 4.9063,3.875 11.154,-5.17295 7.2797,-7.62676 2.2812,-7.34375 z m -46.4062,44.28125 c -3.9868,0.0709 -7.9499,5.40898 -7.3438,8.84375 0.2586,1.5517 1.3007,-2.85777 2.5938,-3.375 1.5517,-1.03447 4.9148,1.04188 4.6562,-2.0625 0,-1.5517 3.8812,-0.77569 -2.8438,4.65625 1.2931,0.51723 2.3094,1.82111 3.3438,1.5625 9.3112,-3.87926 2.611,-3.623 2.0938,-6.46875 -0.2596,-0.77585 1.2984,-1.29526 0.7812,-1.8125 -1.0185,-0.96174 -2.165,-1.3636 -3.2812,-1.34375 z m -14.8126,20 c -0.4624,0.033 -0.9643,0.10561 -1.5624,0.21875 -1.5518,0.25862 -0.5141,3.10455 -1.0313,4.65625 -0.2586,1.03447 -1.0453,1.80833 -1.5625,2.84375 0,0.25862 0.5,0.27264 0.5,0.53125 2.9094,-0.72736 10.5924,-8.74426 3.6562,-8.25 z m -27.9687,117.125 c -2.0699,0.25862 -4.3728,0.2726 -2.5625,0.53125 0.7759,0 1.528,-0.27262 2.5625,-0.53125 z m -38.53125,35.4375 c -0.25862,-0.25862 -14.48788,5.95796 -3.625,4.40625 1.03447,-0.25862 2.34053,-0.27265 3.375,-0.53125 0.25862,0 0.77262,-0.24136 1.03125,-0.5 -0.25862,-1.29309 0.51185,-3.11639 -0.78125,-3.375 z M 926.4375,654.1875 c -0.007,0.0101 0,0.0302 0,0.0625 -0.25862,0 -0.24997,0.27266 -0.25,0.53125 -1.29405,-0.25862 -2.59053,-0.76722 -3.625,-0.25 -0.51723,0.51723 -0.27583,2.31249 0.5,2.3125 1.03447,0 2.08959,-1.29529 3.125,-1.8125 0,0 -0.28123,0.28124 -0.28125,0.28125 0.25862,-0.25862 0.52262,-0.27261 0.78125,-0.53125 0,-0.22629 -0.20051,-0.66446 -0.25,-0.59375 z m -16.5625,80 c 0,0 -2e-5,0.24997 0,0.25 0,0 -2e-5,0.24998 0,0.25 0,0.24956 -0.48387,0.50045 -0.75,0.75 -1.61983,3.78113 3.54993,10.69225 2.0625,0.0312 0,-0.51724 -0.79528,-0.764 -1.3125,-1.28125 z m -0.75,1.25 c 0.2252,-0.24646 0.25002,-0.46876 0.25,-0.46875 -0.0964,0.14992 -0.18003,0.30543 -0.25,0.46875 z"
         transform="matrix(101.262,0,0,101.262,-22.907,0)"
         id="no_10"
         style="fill:#244094;fill-opacity:0.17254902;stroke:#000000;stroke-width:1.87696004;stroke-miterlimit:4;stroke-opacity:0.45882353;stroke-dasharray:none"
         inkscape:connector-curvature="0"
         sodipodi:nodetypes="cccccccsccccccccccccccccccccccccccccccccccccccccccccccccccccccccccccccccscccccccccccccccccccccccscccccsccccccccccccsccccccccccccsccccccccccccccccsscccccccccccccccsccccccccccccccccccccccccccccsccccccccccccccccccccsccccccsccsccccsccscsccccccccccccccccccccccccccscccccccccccccccccccccccccccccccccccccccccccccccccccccccccccccscccsccscccccccscccccccccccccccccccccccccccccccccccccccccccccscccccccsccccccccccccccccccscccccccccccccccccccccccccccscccccccccccccccccscscccccccccsccccsccccccccccccccccccccsccccccccccccccccccccccsccccccccccccccccccccccccccccccccccccccccccccccccscccccccccccccccccccccccccccccccccccccccsccccccccccccsccscccccccscccccccccccsccccsccccsccsscccccccssccccscccccccccccccccccccccccccc" /></g><path
       d="m 129775,68870.7 c 157.13,-602.324 654.7,-1230.93 969.05,-1754.69 811.83,-1440.44 1309.5,-3090.48 1859.44,-4635.66 419.11,-1126.18 550.05,-1414.25 602.42,-2618.99 26.19,-183.414 130.94,-392.918 52.38,-576.234 -209.5,-602.324 -2540.43,-1466.62 -3142.85,-1885.63 -78.56,-52.376 864.3,-1492.91 209.5,-1990.48 -235.69,-183.316 -733.26,0 -890.39,-261.88 -680.98,-1178.56 157.13,-628.61 -52.37,-969.053 -314.36,-471.482 -654.8,-104.752 -1047.62,-576.234 -340.54,-392.82 -104.75,-419.008 78.56,-785.639 104.75,-235.692 -523.86,-235.692 -523.86,-340.542 26.19,-183.316 26.19,-1126.18 26.19,-1152.37 -549.95,-471.384 104.75,-183.316 261.98,-366.632 104.75,-157.128 -550.05,-1099.99 -628.61,-1204.75 -445.2,-602.324 -942.87,-1309.5 -1466.62,-1833.26 -78.56,-78.662 -497.67,-392.918 -576.23,-550.046 -392.82,-733.263 864.3,-2592.81 366.73,-3038 -130.94,-157.226 -366.73,-157.226 -523.86,-261.978 -288.07,-209.504 -419.01,-576.136 -707.08,-759.451 -26.19,0 -916.67,-130.94 -942.86,-130.94 -157.13,-131.038 -209.51,-340.542 -314.26,-523.858 -576.23,-942.865 104.75,-864.301 -183.41,-1545.19 -130.94,-314.256 -628.51,-26.188 -523.76,-209.504 130.94,-235.79 314.25,-392.918 471.38,-602.422 -838.01,-392.82 261.98,-1021.43 -78.56,-1597.56 -523.76,-916.677 -1335.69,-576.234 -2016.57,-1309.5 l -26.19,-130.94 c -26.19,0 -52.38,0 -78.66,26.188 0,-26.188 -26.19,-26.188 -26.19,-52.376 l 0,52.376 c -523.76,104.752 -419.01,707.075 -864.2,838.015 -392.92,104.752 -235.69,-445.196 -680.99,52.376 -52.38,78.564 0,209.504 -26.19,314.354 -26.18,26.188 -314.25,576.136 -314.25,602.324 -78.57,209.504 78.56,890.489 104.75,1073.81 0,78.564 -52.38,130.94 -52.38,209.504 0,157.128 26.19,288.068 52.38,445.294 78.56,209.504 261.88,366.632 288.07,576.136 130.94,916.677 -104.75,288.068 -419.01,576.234 -366.63,366.632 -26.19,471.384 -130.94,916.579 -26.19,104.752 -130.94,157.128 -157.13,261.978 0,26.188 -340.54,-288.166 -392.92,-314.354 -78.56,-52.376 -1047.62,-392.82 -1126.18,-288.068 -104.75,104.752 -26.18,314.256 -104.75,419.008 -314.25,550.046 -733.26,209.602 -1178.56,288.166 -130.94,0 -261.88,78.564 -366.63,52.376 l -104.75,-78.564 c -52.38,-104.85 -52.38,-261.978 -104.75,-366.73 -183.32,-314.256 -785.74,-1126.18 -1099.99,-1309.5 -680.99,-392.82 -707.18,157.128 -654.8,576.234 l -157.13,549.948 c 0,0 26.19,0 26.19,0 l -26.19,26.188 104.75,130.94 c -26.19,52.376 -130.94,78.564 0,157.128 445.3,340.542 1204.75,969.053 1676.23,1178.56 549.95,235.79 995.14,26.188 1492.81,523.858 104.75,78.564 26.19,314.256 130.94,366.632 78.56,26.188 130.94,-104.752 183.32,-78.564 209.5,78.564 288.07,340.444 445.29,497.572 52.38,52.474 209.51,52.474 183.32,131.038 -288.17,549.948 26.19,576.136 104.75,1204.75 26.19,104.752 -78.56,209.504 -78.56,314.256 0,0 0,0 0,0 0,0 0,0 0,0 -26.19,26.188 -26.19,26.188 -26.19,26.188 0,0 0,0 0,0 0,261.88 392.82,52.376 497.57,157.128 340.44,261.88 -209.5,628.61 -52.38,890.489 157.13,366.632 785.74,707.075 838.12,1126.18 26.18,314.256 -209.51,1309.5 -183.32,1440.44 235.69,838.113 811.83,1126.18 1126.18,1807.17 104.75,-183.414 235.69,-340.542 602.32,-131.038 183.32,104.752 78.57,471.482 261.88,576.234 157.13,104.752 366.73,-104.752 550.05,-52.376 78.56,0 78.56,157.128 130.94,209.504 157.13,78.564 157.13,-235.692 314.26,26.188 288.06,602.422 78.56,1126.18 183.31,1388.06 78.57,235.692 785.74,-288.068 471.48,471.482 -78.56,183.316 -340.54,130.94 -497.67,235.692 -157.12,104.752 -340.44,183.316 -445.19,340.444 -52.38,52.376 26.19,183.316 -26.19,235.692 -52.38,52.376 -183.32,-78.564 -209.5,-26.188 -78.57,183.316 -104.76,419.106 -104.76,628.61 0,130.94 78.57,261.88 26.19,392.82 -26.19,235.692 -340.54,340.444 -392.92,550.046 -52.37,157.128 78.57,340.444 26.19,471.384 -130.94,288.068 -419.01,235.692 -445.19,628.61 -26.19,78.564 130.94,157.128 130.94,261.88 -78.57,497.572 -785.74,419.008 -811.93,864.203 -26.19,183.414 -157.13,654.798 -183.31,680.986 -104.76,0 -235.7,-261.88 -340.45,-183.316 -235.69,209.504 130.94,733.361 -104.75,890.489 -78.56,52.376 -235.69,-288.166 -209.5,-183.414 0,131.038 183.31,183.414 235.69,314.354 235.69,864.203 -78.57,288.068 -445.2,707.075 -78.66,104.752 78.57,366.73 -26.28,366.73 -157.13,-26.188 -78.57,-340.542 -209.51,-366.73 -209.5,-52.376 -471.38,26.188 -576.13,209.602 -419.11,707.075 471.38,209.504 419,628.511 -52.37,261.88 -733.26,707.174 -759.45,995.241 -131.04,1728.5 26.19,-52.376 288.07,602.324 26.19,26.188 -235.69,497.67 -26.19,628.61 26.19,26.188 78.57,-104.752 104.75,-78.564 52.38,78.564 -26.18,261.88 78.57,288.068 52.37,26.188 -52.38,-235.692 26.19,-235.692 78.56,-26.188 104.75,78.564 130.94,157.128 157.12,419.008 -26.19,1099.99 52.37,1257.12 52.38,104.752 209.51,52.376 288.07,130.94 104.75,130.94 157.13,288.068 235.79,419.106 26.19,52.376 -26.19,130.94 0,183.316 52.38,78.564 157.13,78.564 209.5,130.94 26.19,26.188 -104.75,0 -104.75,26.188 -26.19,52.376 26.19,104.752 52.38,157.128 130.94,157.128 419.01,235.692 392.82,419.008 -26.19,157.128 -445.2,26.188 -471.39,183.316 -52.37,209.602 261.88,340.542 314.26,523.858 26.19,78.564 -104.75,157.128 -78.56,261.88 26.18,52.376 183.31,52.376 183.31,130.94 -26.19,340.542 -288.07,-26.188 -183.31,261.88 26.18,104.85 157.12,183.414 130.94,261.978 -26.19,104.752 -288.07,-26.188 -314.26,52.376 -26.19,680.887 261.88,759.451 471.38,1047.62 52.38,52.376 -209.5,104.752 -157.12,183.316 26.18,130.94 78.56,235.692 157.12,340.444 576.24,759.549 130.94,-26.188 680.99,-130.94 104.75,0 -104.75,288.068 0,366.632 157.13,78.564 340.44,-52.376 523.76,-52.376 157.13,26.188 235.69,288.068 366.63,288.068 130.94,0 183.42,-157.128 288.17,-157.128 52.37,-26.188 0,78.564 26.19,104.752 78.56,26.188 130.94,0 209.5,-26.188 26.19,-26.188 26.19,-183.316 52.38,-130.94 261.88,576.234 -157.13,680.986 -52.38,707.174 52.38,0 654.7,-445.196 733.26,-497.67 26.19,-26.188 78.57,-157.128 104.76,-183.316 0,0 0,0 0,0 -130.94,392.918 -471.39,838.113 157.22,1073.81 104.75,52.376 314.26,-183.316 366.63,-78.564 52.38,157.128 -366.63,392.82 -209.5,445.294 157.13,78.564 130.94,-366.73 288.07,-392.918 130.94,-26.188 26.19,261.88 -26.19,366.73 -78.56,130.94 -235.69,183.316 -366.63,288.068 -52.38,78.564 -261.98,261.88 -183.32,209.504 811.83,-314.256 497.57,-838.113 916.58,-1099.99 130.94,-78.564 -209.5,340.444 -78.56,419.008 183.31,104.752 419.1,-26.188 602.42,-130.94 130.94,-52.376 183.31,-261.88 288.07,-340.444 157.12,-130.94 864.3,-209.504 942.86,-314.256 78.57,-78.564 -183.31,-209.504 -104.75,-288.166 130.94,-104.752 340.44,-26.188 523.76,-52.376 52.38,0 157.13,26.188 183.32,-26.188 52.37,-78.564 -52.38,-183.316 -26.19,-235.692 26.19,-52.376 26.19,130.94 78.56,157.128 26.19,26.188 707.18,-392.82 759.55,-471.384 26.19,-26.188 -104.75,-550.046 157.13,-497.572 52.37,0 1021.43,890.391 785.74,-78.662 -52.38,-183.316 -523.86,-209.504 -445.3,-419.008 52.38,-183.316 392.92,-78.564 576.24,-26.188 104.75,26.188 104.75,314.256 209.5,261.88 261.88,-183.316 -130.94,-1073.81 183.32,-890.391 261.88,183.316 -445.2,838.015 366.73,576.136 1257.12,-419.008 183.31,-157.128 445.19,-549.948 26.19,-26.188 52.38,52.376 104.75,52.376 52.38,0 130.94,0 157.13,-52.376 26.19,-52.376 -78.56,-235.79 0,-235.79 26.19,0 445.2,366.73 576.24,314.354 183.31,-52.376 314.25,-209.602 419,-340.542 26.19,0 26.19,-26.188 26.19,-52.376 l -52.37,-52.376 0,-0.04 z m -497.57,-1964.2 c 1230.93,-654.798 -759.55,26.188 -1099.99,-366.73 -104.75,-130.94 -52.38,-340.444 -104.75,-497.572 -26.29,-183.316 -209.61,-392.82 -78.67,-523.858 104.85,-130.94 366.73,131.038 523.86,52.376 183.32,-104.752 104.75,-497.572 314.26,-576.136 130.94,-26.188 419.01,759.549 523.86,707.174 0,0 52.37,-916.677 52.37,-916.677 78.57,-183.316 209.51,-340.444 366.63,-445.294 130.94,-104.752 392.82,52.376 471.39,-78.564 130.94,-209.504 -340.45,-340.444 -549.95,-445.196 -157.13,-104.752 -340.44,-183.316 -523.86,-209.504 -157.13,-26.188 -340.44,78.564 -497.57,26.188 -26.19,-26.188 -523.76,-707.174 -523.76,-707.174 -183.41,-78.564 -995.24,-52.376 -1073.81,-366.632 -26.19,-157.128 366.63,-52.376 445.2,-183.316 0,0 -78.57,-995.241 -78.57,-995.241 -157.13,-366.632 -864.3,-550.046 -1073.81,-969.053 0,0 -235.69,-995.241 -235.69,-995.241 -130.94,-130.94 -497.67,-52.376 -523.86,-235.692 -26.19,-261.88 576.24,157.128 733.36,392.82 183.32,288.166 392.82,1152.37 628.61,1335.78 707.08,549.948 733.27,-916.677 1283.31,-523.858 0,0 -52.37,916.677 -52.37,916.677 157.13,445.196 1597.56,811.925 1623.75,916.677 183.31,916.579 -916.68,-340.542 -995.24,-314.354 0,0 -288.07,628.61 -288.07,602.422 -26.19,0 -550.05,-1676.23 -811.93,-602.422 -78.56,261.978 1073.81,1414.35 1545.29,1126.18 183.32,-104.752 52.38,-602.324 261.88,-602.324 130.94,-26.188 183.32,183.316 288.07,288.068 78.57,78.564 340.45,157.128 261.88,261.88 -78.56,157.128 -523.76,-78.564 -471.38,78.564 52.37,157.128 340.44,52.376 523.76,26.188 1152.37,-183.316 -209.51,-759.451 209.5,-1204.75 131.04,-104.752 366.73,130.94 523.86,104.752 183.32,-52.376 340.44,-471.384 419.01,-314.256 78.56,183.316 -314.26,314.256 -314.26,523.858 0,235.692 654.7,209.504 576.14,419.008 -52.38,157.128 -392.82,52.376 -445.2,209.504 0,0 497.67,733.361 497.67,733.361 0,209.504 -209.6,340.444 -314.35,523.76 0,0 -209.51,654.798 -209.51,654.798 -26.18,26.188 -969.05,157.128 -995.24,157.128 -52.37,52.376 235.69,-26.188 261.88,52.376 78.57,261.88 -340.44,576.136 -183.31,785.737 130.94,157.128 445.29,78.564 550.04,261.88 130.94,157.128 -733.36,1361.87 -1440.44,916.677 l 0,0.01 z m -4661.85,-5761.85 c 78.56,130.94 157.13,235.692 235.69,366.632 78.56,104.752 157.13,261.88 261.88,340.444 157.13,130.94 523.76,104.752 523.76,288.166 0,183.316 -340.44,-209.602 -523.76,-157.226 -392.82,104.85 -52.38,1440.54 209.5,1492.91 0,0 183.32,-759.549 183.32,-759.549 130.94,-130.94 392.92,-26.188 445.29,-183.316 26.19,-26.188 -942.86,-1047.62 -445.29,-1126.18 209.6,-26.188 340.54,366.632 550.05,340.444 0,0 157.12,-759.451 183.31,-759.451 130.94,-26.188 183.32,209.504 261.88,314.256 104.75,104.752 340.45,183.316 288.07,314.256 -78.56,157.128 -392.82,0 -471.38,130.94 -78.57,130.94 26.18,314.354 52.37,497.67 26.19,157.128 52.38,314.256 52.38,471.384 0,0 -288.07,602.422 -288.07,602.422 -235.69,52.376 -366.63,-628.61 -523.86,-445.294 -104.75,130.94 26.19,314.256 26.19,497.67 26.19,157.128 104.85,314.256 52.38,471.384 -78.57,314.256 -628.51,811.925 -628.51,1152.37 0,471.384 288.06,1073.81 366.63,1519 26.19,183.316 -52.38,392.918 78.56,523.858 104.75,130.94 340.54,235.692 523.86,209.504 183.31,0 288.07,-340.444 445.19,-261.88 0,0 209.51,995.143 209.51,995.143 -523.76,785.737 -52.38,-1099.9 -1073.81,-628.511 0,0 -183.32,811.925 -183.32,811.925 -235.69,-52.376 -366.63,-1204.75 -366.63,-1388.16 26.19,-759.451 -550.05,-864.203 -523.76,-995.143 0,-209.602 261.88,-314.354 340.44,-497.67 130.94,-235.692 419.01,-1309.5 366.64,-1571.38 -52.38,-261.88 -419.01,-419.008 -497.58,-707.174 -26.18,-52.376 -26.18,-916.579 -52.37,-995.241 0,0 -523.86,-628.511 -523.86,-628.511 52.38,-157.128 288.07,-157.128 445.29,-235.692 l 0,0 z"
       id="fi"
       style="fill:#244094;fill-opacity:0.17254902;stroke:#000000;stroke-width:190.06399536;stroke-linecap:round;stroke-linejoin:round;stroke-miterlimit:4;stroke-opacity:0.45882353;stroke-dasharray:none"
       inkscape:connector-curvature="0" /><path
       d="m 104789,90791.9 c 52.38,-157.128 -52.38,-235.692 -209.5,-314.354 l -104.76,-261.88 c 209.51,130.94 549.95,209.504 445.2,445.294 0,52.376 -52.38,104.752 -130.94,130.94 l 0,0 z m 2357.11,-13959.4 c 26.19,995.241 26.19,1571.38 -759.55,2226.17 -183.32,157.128 -288.07,366.632 -497.57,445.196 -183.32,26.188 -366.73,-183.316 -550.05,-157.128 -288.06,52.376 -392.82,1126.18 -942.76,785.737 -157.23,-78.564 288.06,-523.858 288.06,-864.301 0,-183.316 -602.42,-1335.69 157.13,-1440.44 183.32,-26.188 366.63,235.692 523.76,130.94 0,0 130.94,-969.053 130.94,-969.053 419.11,-549.948 1178.56,-340.444 1650.04,-157.128 l 0,0 z m 1649.94,1571.38 c 52.38,497.67 235.69,890.489 -157.13,1283.31 -78.56,78.564 -183.31,130.94 -235.69,235.79 -130.94,288.068 -104.75,628.511 -209.5,942.767 0,0 -340.55,759.549 -340.55,759.549 -680.88,-235.692 340.55,-2880.87 942.87,-3221.42 l 0,0 z m -4426.16,11523.7 0,0 c 0,0 0,0 0,0 0,0 0,0 0,0 z m 523.86,-340.444 c 366.63,-419.106 -52.38,-392.918 -78.57,-916.677 0,-157.128 157.13,-261.88 183.32,-419.008 0,-52.376 -104.75,-104.85 -130.94,-157.226 -340.44,-52.376 -785.74,-157.128 -1073.81,52.376 288.07,-366.632 785.74,-261.88 1178.56,-183.316 -209.5,-340.444 -340.44,-602.324 -288.07,-654.699 104.75,-235.692 471.39,288.068 707.08,183.316 209.6,-78.564 -523.76,-392.82 -419.01,-602.422 78.56,-183.316 445.2,26.188 523.76,-130.94 131.04,-183.316 52.38,-445.196 -52.38,-628.511 -52.37,-104.752 -209.5,-26.188 -314.25,-52.376 -209.51,-78.564 -157.13,-445.294 -314.26,-628.61 -104.75,-130.94 -314.25,-130.94 -419.01,-261.88 -52.47,-104.752 26.19,-235.692 -26.28,-340.444 -52.38,-130.94 -366.63,-550.046 -366.63,-576.234 0,-52.376 104.75,-78.564 78.56,-104.752 -26.19,-52.376 -130.94,-26.188 -183.32,-52.376 -130.94,-104.752 -235.69,-261.88 -314.25,-392.82 -130.94,-235.692 26.18,-864.301 -157.13,-1152.37 -52.38,-78.564 -235.69,26.188 -314.36,-52.376 -78.56,-104.752 -52.37,-288.068 -52.37,-445.294 -52.38,-392.82 680.98,-1309.5 340.54,-1728.5 -471.48,-602.422 -209.5,1021.43 -1204.75,26.188 -157.13,-157.128 104.75,-628.61 104.75,-811.925 -26.19,-314.256 -340.54,-1492.81 -340.54,-1492.81 104.85,-130.94 366.73,104.752 523.86,78.564 78.56,261.88 183.31,523.858 419.01,183.316 576.23,-811.827 -157.13,-1859.44 0,-2330.93 52.37,-183.316 314.35,-209.504 392.91,-366.632 52.38,-104.752 0,-235.692 -52.37,-340.444 0,-78.564 -131.04,-104.752 -104.85,-157.128 52.47,-183.414 890.49,-235.79 1126.18,-838.113 0,0 -26.19,-759.549 -26.19,-759.549 288.17,-1492.81 -392.82,-1204.75 -523.76,-2330.93 -26.19,-261.88 497.57,-130.94 707.17,-314.256 0,0 288.07,-1047.62 288.07,-1047.62 -104.75,-654.699 -1099.99,-602.324 -1257.12,-1204.75 -130.94,-549.948 288.07,-1283.31 235.69,-1859.54 -52.37,-392.82 -471.38,-733.263 -497.57,-1126.08 -26.28,-157.226 104.75,-340.542 104.75,-497.67 -26.18,-183.316 -131.03,-340.444 -104.75,-523.76 0,-157.128 183.32,-261.978 183.32,-419.106 0,-3168.94 -392.92,2330.93 -392.92,-838.015 0,-288.166 366.73,-471.482 392.92,-759.549 26.19,-104.752 -130.94,-209.504 -104.75,-340.444 78.56,-419.106 654.7,-1309.5 995.14,-1519.1 1073.81,-680.887 1780.98,550.046 1964.29,-680.887 183.32,-1283.31 -916.68,-1021.43 -759.55,-1492.81 235.79,-733.361 602.42,-1466.72 838.11,-2173.8 26.19,-104.752 157.13,-130.94 183.32,-235.692 0,0 -78.56,-969.053 -78.56,-969.053 0,-26.188 130.94,-811.925 130.94,-811.925 0,0 -261.88,-1021.43 -261.88,-1021.43 104.75,-235.692 523.85,0 733.36,-104.752 0,0 576.13,-497.572 576.13,-497.572 78.57,-235.79 -261.88,-445.294 -209.5,-680.986 157.13,-471.384 1021.43,-1492.81 1178.56,-1938.11 288.07,-707.075 -392.82,-759.451 -497.57,-1335.69 -78.57,-471.384 209.5,-183.316 366.63,-366.632 209.5,-261.88 209.5,-628.61 261.88,-916.677 26.19,-209.504 523.86,-1126.18 680.98,-1126.18 0,0 838.02,366.73 838.02,366.73 523.86,-209.602 -130.94,-1702.41 26.19,-1911.92 366.73,-471.384 2173.8,419.008 2409.49,261.88 864.3,-549.948 -52.38,-497.572 -78.57,-733.263 -78.56,-314.354 366.73,-550.046 366.73,-864.301 0,-183.316 -52.37,-366.632 -130.94,-523.858 -78.56,-130.94 -419.1,-209.504 -340.54,-340.444 104.75,-183.316 392.92,-52.376 602.42,-104.752 l 52.38,0 c 78.56,52.376 209.5,52.376 314.26,130.94 314.25,209.504 -104.76,183.316 104.75,314.256 445.29,340.542 1204.75,969.053 1676.23,1178.56 549.95,235.79 995.14,26.188 1492.81,523.858 104.75,78.564 26.19,314.256 130.94,366.632 78.56,26.188 130.94,-104.752 183.31,-78.564 209.51,78.564 288.07,340.444 445.3,497.572 52.37,52.474 209.5,52.474 183.31,131.038 -288.16,549.948 26.19,576.136 104.76,1204.75 26.18,104.752 -78.57,209.504 -78.57,314.256 -52.37,314.256 340.45,78.564 471.39,183.316 340.44,261.88 -209.51,628.61 -52.38,890.489 157.13,366.632 785.74,707.075 838.11,1126.18 26.19,314.256 -209.5,1309.5 -183.31,1440.44 235.69,838.113 811.82,1126.18 1126.18,1807.17 -78.57,104.752 -157.23,235.692 -261.98,288.068 -104.75,52.376 -183.32,-209.504 -314.26,-183.316 -52.37,26.188 -78.56,157.128 -130.94,157.128 -209.5,26.188 -445.19,-157.128 -628.61,-52.376 -130.94,78.564 78.67,392.82 -52.37,471.384 -549.95,340.444 -733.27,-288.068 -1126.18,-366.632 -52.38,0 52.47,157.128 52.47,235.692 0,52.376 26.19,104.752 0,157.128 -26.28,183.316 -183.41,340.444 -131.04,497.572 0,26.286 26.19,52.474 52.38,78.662 -183.32,-52.376 -366.63,-78.662 -523.76,-157.226 -78.56,-26.188 -157.13,-235.692 -183.32,-157.128 -52.37,288.166 654.7,183.316 707.08,471.482 52.37,157.128 -314.26,52.376 -471.39,130.94 -26.18,26.188 78.57,26.188 130.94,26.188 26.19,26.188 314.26,209.504 157.13,340.444 -26.19,26.188 -52.37,-130.94 -104.75,-104.752 -26.19,26.188 78.56,130.94 26.19,157.128 -209.51,130.94 -811.83,0 -916.68,392.918 0,78.564 157.23,0 209.6,26.188 183.32,130.94 340.45,314.256 419.01,523.76 157.13,471.384 -628.61,680.986 -654.8,1204.75 -26.18,628.61 838.12,680.986 1047.62,1152.37 26.19,26.188 -523.76,707.174 -628.51,942.865 -157.13,314.256 -209.5,1597.56 -523.86,1649.94 -52.37,0 -52.37,-183.316 -104.75,-157.128 -183.31,26.188 78.57,445.196 -104.75,523.76 -78.56,52.474 -52.38,-314.256 -130.94,-261.88 -26.19,0 -26.19,26.188 -26.19,52.376 0,0 -26.19,0 -26.19,0 -52.37,78.564 52.38,235.692 -26.18,288.166 -78.57,104.752 -392.82,52.376 -471.39,209.504 -78.56,104.752 -52.37,314.256 -183.41,366.632 -157.13,52.376 -392.82,-235.692 -497.57,-104.752 -104.76,157.128 288.06,366.632 209.5,549.948 -78.56,131.038 -261.88,-261.88 -366.63,-183.316 -130.94,104.752 26.19,314.354 0,471.482 -26.19,183.316 -52.38,445.196 -235.69,549.948 -157.13,78.564 -340.55,-183.316 -523.86,-157.128 -104.75,0 235.69,78.564 261.88,183.316 26.19,52.376 -104.75,78.564 -157.13,78.564 -52.38,0 78.56,-130.94 26.19,-183.316 -52.38,-26.188 -157.13,-26.188 -183.32,26.188 -26.19,78.564 157.13,157.128 104.75,235.692 -52.37,52.376 -209.5,-104.752 -288.06,-26.188 -52.38,52.376 130.94,78.564 157.12,157.128 0,26.188 -104.75,-26.188 -130.94,0 -52.37,104.752 0,288.166 -78.56,366.73 -104.75,104.752 -497.57,26.188 -392.82,104.752 157.13,130.94 628.51,-78.564 576.14,104.752 -78.57,209.504 -314.26,340.444 -445.2,523.76 -52.38,52.376 -104.75,157.128 -183.32,183.316 -78.56,26.188 -235.79,0 -235.79,-78.564 26.19,-78.564 209.61,-26.188 235.79,-104.752 78.57,-157.128 -209.6,52.376 -314.35,78.564 26.19,78.564 78.56,157.128 130.94,235.79 78.66,183.316 209.6,680.887 0,628.511 -52.38,0 -26.19,-261.88 -78.56,-209.504 -78.57,130.94 26.18,340.444 -78.57,471.384 -26.19,78.564 -157.13,-26.188 -235.69,-26.188 -183.32,26.188 -419.01,0 -576.14,104.752 -419.1,314.354 288.07,445.294 602.33,811.925 26.19,26.188 -104.75,52.376 -130.94,26.188 0,-26.188 -78.57,-26.188 -78.57,0 -26.18,209.504 26.19,419.008 0,628.61 -26.18,130.94 -130.94,235.692 -157.12,366.632 -26.19,157.128 -26.19,314.256 26.18,471.384 0,26.188 78.57,-52.376 104.76,-26.188 104.75,183.316 392.82,445.294 235.69,602.422 -157.13,157.128 -392.82,-288.068 -602.33,-209.504 -602.42,209.504 419.01,759.451 340.45,1335.69 0,104.752 -261.88,-52.376 -261.88,26.188 -26.19,130.94 183.31,157.128 209.5,261.88 26.19,52.376 -104.75,26.188 -104.75,78.564 0,104.752 0,235.692 52.38,340.444 26.18,104.752 0,235.79 52.37,340.542 26.19,52.376 130.94,-52.376 130.94,0 26.19,26.188 -104.75,26.188 -130.94,52.376 -26.19,52.376 -26.19,130.94 0,183.316 52.38,130.94 235.69,209.504 261.88,366.632 26.19,157.128 -130.94,314.256 -104.75,471.482 0,52.376 78.56,-26.188 130.94,0 78.56,26.188 26.19,209.504 104.75,209.504 288.07,0 838.12,-157.128 1099.99,0 104.75,52.376 0,235.692 52.38,340.444 78.56,157.128 235.69,261.88 392.92,366.632 26.18,26.188 130.94,-78.564 157.12,-26.188 52.38,52.376 -78.56,157.128 -26.18,183.316 26.18,0 1361.87,-523.76 654.7,261.978 -104.76,130.94 -340.45,-235.79 -497.58,-183.316 -130.94,52.376 183.32,157.128 261.88,261.88 104.76,157.128 130.94,392.82 288.07,497.572 78.57,26.188 130.94,-261.88 235.69,-209.504 131.04,52.376 52.38,288.068 157.23,366.632 392.82,445.294 680.89,157.128 602.32,864.301 -26.18,261.88 -261.88,-26.188 -288.06,-26.188 -130.94,26.188 -157.13,183.316 -261.88,261.88 -235.79,261.88 0,497.67 -733.37,838.113 -26.18,26.188 130.94,261.88 130.94,288.068 -52.37,78.564 -183.31,-52.376 -288.06,-26.188 -183.32,26.188 -366.64,183.316 -576.24,183.316 -209.5,0 -26.19,-392.82 -26.19,-576.136 26.19,-183.316 -130.94,-157.128 -209.5,-261.88 0,-26.188 26.19,-78.564 0,-131.038 -104.75,-157.128 -130.94,-392.82 -314.26,-471.384 -130.94,-52.376 -314.25,78.564 -392.82,209.504 -26.18,78.564 209.51,-26.188 235.7,26.188 104.75,183.316 26.18,419.106 130.94,576.234 78.56,130.94 471.38,104.752 392.82,235.692 -314.26,602.324 -1073.81,-314.256 -1230.93,-261.88 -209.51,52.376 -314.26,340.444 -549.95,340.444 -157.13,0 -183.32,-340.444 -340.54,-314.256 -130.94,26.188 0,288.068 -78.57,419.008 -26.19,52.376 -104.75,-52.376 -183.31,-52.376 -209.51,26.188 -445.2,26.188 -628.51,130.94 -52.38,26.188 78.56,104.752 130.94,157.128 209.5,130.94 471.38,-78.564 628.51,-130.94 261.97,-26.188 523.85,314.256 759.55,235.692 104.75,-52.376 -209.51,-366.632 -78.57,-340.444 157.13,0 209.51,288.068 366.63,366.632 157.13,52.376 392.92,-130.94 523.86,0 78.57,78.564 -209.6,235.79 -157.22,366.73 52.47,78.564 261.97,26.188 340.54,-52.376 52.37,-52.376 -157.13,-183.316 -104.75,-209.504 130.94,-52.474 235.69,104.752 340.44,130.94 209.5,52.376 392.82,183.316 576.14,104.752 131.03,-52.376 26.28,-340.542 131.03,-419.106 130.94,-78.564 314.26,78.564 445.2,0 183.32,-78.564 209.5,-419.008 419.01,-445.196 157.13,-26.188 419.1,235.692 340.54,366.632 -131.04,183.316 -445.29,0 -654.8,78.564 -26.19,0 52.38,78.564 78.57,104.752 78.56,157.226 235.69,314.354 235.69,497.67 26.19,52.376 -130.94,-26.188 -183.32,26.188 -183.31,104.752 -392.82,209.504 -497.57,392.82 -104.75,183.316 -26.19,419.106 -104.75,602.422 -52.38,104.752 -130.94,-392.918 -261.98,-340.542 -78.56,52.376 131.04,340.542 52.38,288.166 -261.88,-104.752 104.85,-995.241 -314.26,-942.865 0,0 78.56,1152.37 -392.82,1492.81 -157.13,104.752 -392.82,26.188 -576.23,52.376 -78.57,26.188 209.6,78.564 209.6,157.128 104.75,314.354 -288.17,104.752 -340.54,157.128 -52.38,26.188 157.12,26.188 157.12,104.85 26.19,26.188 -78.56,-26.188 -130.94,0 -26.18,26.188 -52.37,78.564 -78.56,78.564 -52.38,0 -1388.06,-183.414 -1283.31,52.376 26.19,52.376 104.75,52.376 183.32,52.376 26.18,0 52.37,-78.564 78.56,-78.564 52.38,26.188 52.38,183.316 131.04,157.128 52.37,0 -26.29,-157.128 52.37,-157.128 419.01,-104.752 759.45,0 942.77,419.008 0,52.376 -130.94,-26.188 -157.13,0 -104.75,104.752 130.94,261.88 -157.13,261.88 -209.5,0 -471.38,-288.068 -602.32,-130.94 -131.04,157.128 392.82,78.564 549.95,183.316 104.75,78.564 314.25,550.046 235.69,680.986 -52.38,104.752 -314.26,-78.564 -340.44,26.188 -26.19,130.94 549.94,838.113 366.63,1073.81 -130.94,157.128 -445.2,-78.564 -628.51,0 -78.57,0 26.19,104.752 78.56,157.128 104.75,130.94 523.76,261.88 523.76,471.384 0,183.316 -340.44,288.166 -314.25,497.67 0,157.128 261.88,157.128 366.63,288.068 26.19,52.376 -104.75,52.376 -130.94,78.564 -104.75,183.316 -209.51,392.82 -235.69,602.422 -52.38,157.128 314.25,733.263 288.06,785.639 -52.37,52.376 -183.31,-52.376 -261.88,26.188 -209.5,209.504 235.7,628.61 157.13,969.053 0,78.563 -209.5,0 -235.69,78.563 -52.38,78.564 130.94,183.316 78.56,261.88 -288.06,864.301 -157.12,-628.511 -288.06,261.978 -78.57,549.948 -104.76,1414.25 -550.05,1833.26 -26.19,26.188 -104.75,0 -130.94,-52.376 0,-52.376 78.56,-104.752 52.38,-157.128 0,-78.563 -445.2,-26.188 -445.2,-26.188 -26.19,-26.188 52.38,-130.94 26.19,-130.94 -261.88,26.188 -288.07,157.128 -419.11,288.068 -235.69,183.316 -78.56,-209.504 -157.13,-183.316 -183.31,104.752 -419,157.128 -471.38,157.128 -130.94,26.188 -235.69,-26.188 -366.63,-26.188 -104.75,0 -261.98,-78.563 -288.17,26.188 -52.37,157.128 235.79,314.256 157.23,445.196 -131.04,130.94 -366.73,-26.188 -550.05,26.188 -157.13,52.376 -183.31,235.79 -261.88,366.73 -680.98,995.241 183.32,680.887 157.13,1361.87 -26.19,209.504 -157.13,392.82 -314.26,549.948 -130.94,130.94 -550.04,-130.94 -628.61,-130.94 -628.51,-52.376 -445.19,392.918 -1099.99,392.918 -209.5,0 -392.82,-131.038 -576.13,-157.226 -104.75,0 -261.88,78.564 -366.73,26.188 -183.32,-104.752 288.16,-183.316 288.16,-183.316 0,-157.128 -157.12,-288.068 -130.94,-445.196 0,-157.128 209.51,-235.692 261.88,-366.632 0,0 -471.48,-654.798 -838.11,-1230.93 -26.19,104.752 -157.13,209.504 -157.13,340.444 26.19,549.948 549.95,497.572 -26.19,1021.43 0,26.188 0,26.188 -26.18,26.188 l 0,-0.03 z m 8197.52,-6495.21 c 52.37,-78.564 157.13,-52.376 235.69,-78.564 -183.32,419.106 -549.95,2226.17 -628.51,2776.22 -26.29,130.94 78.56,1152.27 -261.98,1178.56 -52.38,0 -157.13,-1178.56 -157.13,-1257.22 52.38,-759.451 576.24,-1152.37 707.18,-1859.44 52.37,-314.256 -130.94,-445.196 104.75,-759.549 l 0,0 z m 3535.67,-707.075 c 0,157.128 -209.51,183.316 -314.26,288.068 -340.54,392.82 261.88,104.752 -235.79,497.572 -392.82,288.166 -157.13,288.166 -366.63,680.986 -78.56,130.94 -261.88,523.76 -340.44,366.632 -78.57,-157.128 130.94,-366.632 209.5,-549.948 -26.19,26.188 -52.38,78.564 -78.56,78.564 -26.19,0 -26.19,-78.564 -26.19,-104.752 -26.19,-183.316 -288.07,-497.67 -288.07,-550.046 0,-157.128 104.75,-314.256 104.75,-471.384 -26.19,-183.316 -183.31,-314.256 -183.31,-497.67 -26.19,-130.94 759.45,-1388.06 864.2,-1440.44 183.32,-78.564 392.92,0 576.23,-26.188 288.07,419.106 -52.37,471.482 -288.06,1021.43 -288.17,680.986 366.63,471.384 366.63,707.174 l 0,0 z m 890.49,-28442.5 c 52.37,26.188 78.56,52.376 130.94,78.564 26.18,26.188 -52.38,-26.188 -130.94,-78.564 z m -1807.17,6966.59 c 0,52.376 0,-26.188 -26.19,-104.85 26.19,26.188 26.19,78.662 26.19,104.85 z m -11707,28154.3 -26.19,-78.564 c 0,-157.128 -52.38,-261.88 -130.94,-314.256 l -26.19,-104.752 c 52.38,0 104.75,26.188 130.94,78.564 26.19,104.752 52.38,261.88 52.38,419.008 l 0,0 z"
       id="se"
       style="fill:#244094;fill-opacity:0.17254902;stroke:#000000;stroke-width:190.06399536;stroke-miterlimit:4;stroke-opacity:0.45882353;stroke-dasharray:none"
       inkscape:connector-curvature="0" /><path
       d="m 98870.4,92468 c -340.444,-52.376 -680.986,-235.692 -1021.43,-288.068 -78.564,0 -392.82,26.188 -576.136,0 0,-130.94 0,-261.88 26.188,-419.008 0,-131.038 209.504,-288.166 104.752,-392.918 104.752,-130.94 -52.376,-340.444 -52.376,-523.76 -26.188,-157.128 52.376,-392.918 -52.376,-497.67 -235.79,-235.692 -916.677,26.188 -1047.62,-445.196 -78.564,-288.068 183.316,-602.422 183.316,-942.865 26.188,26.188 26.188,26.188 52.376,52.376 811.925,392.918 288.068,-654.699 235.692,-759.451 -26.188,-52.376 -52.376,-209.602 -130.94,-157.226 -130.94,52.376 -104.752,288.166 -235.692,314.354 -78.564,26.188 -26.188,-183.316 -26.188,-261.978 26.188,-183.316 78.564,-366.632 78.564,-523.76 26.188,-157.128 -130.94,-366.632 0,-471.384 26.188,-26.188 78.564,-52.376 104.752,-52.376 -26.188,-52.376 -130.94,-1178.56 130.94,-1073.81 157.128,52.376 52.376,314.256 130.94,445.196 235.692,550.046 1361.87,-811.925 1414.25,-811.925 550.046,-157.128 -78.564,707.174 26.188,838.113 104.752,130.94 314.354,26.188 497.67,-26.188 -52.376,0 -78.564,0 -78.564,-26.188 -52.376,-130.94 104.752,-288.068 26.188,-392.82 -52.376,-78.564 -209.504,130.94 -235.79,52.376 -52.376,-104.752 157.226,-183.316 157.226,-288.068 26.188,-602.422 -366.73,-419.106 130.94,-785.737 104.752,-104.752 419.008,-78.564 497.572,0 52.376,52.376 -78.564,288.068 -26.188,235.692 104.752,-104.752 104.752,-340.444 235.692,-419.008 104.752,-52.376 235.79,0 340.542,0 130.94,78.564 759.452,235.692 759.452,235.692 52.37,157.128 -78.56,340.444 -52.38,523.76 0,130.94 209.51,261.978 157.13,392.918 -52.38,104.752 -235.69,-26.188 -340.44,0 -157.13,26.188 392.82,130.94 366.63,288.068 0,52.376 -26.19,78.564 -26.19,104.752 104.75,26.188 130.94,261.88 261.98,288.068 314.25,78.564 785.64,-366.632 916.58,235.692 52.37,209.602 -576.14,1257.22 -785.64,1152.37 -183.32,-104.752 -183.32,-445.196 -392.92,-523.76 -235.69,-78.564 -209.5,1283.31 -288.07,1440.44 -130.94,340.542 -340.441,576.234 -707.072,576.234 -183.414,0 -576.234,-288.166 -523.858,-104.752 78.564,183.316 497.572,78.564 602.422,288.068 0,26.188 0,52.376 0,78.564 26.188,0 52.376,0 52.376,0 104.752,0 130.94,183.316 209.504,183.316 288.068,-78.564 497.568,-523.76 785.638,-419.008 157.23,78.564 235.79,314.256 419.11,340.444 104.75,26.188 130.94,-157.128 209.5,-209.504 471.39,969.053 -104.75,130.94 78.56,497.572 157.13,288.166 654.8,1492.91 -314.25,1388.06 -209.51,-26.188 -392.92,-183.316 -602.42,-235.692 -78.57,0 -209.51,130.94 -288.07,52.376 -209.51,-157.128 523.76,-104.752 104.75,-340.444 -654.698,-340.444 0,235.692 -209.5,235.692 -78.57,0 -261.883,-785.639 -261.883,-811.827 -78.564,-183.414 -340.542,-288.166 -392.918,-497.67 0,-26.188 26.188,-26.188 26.188,-26.188 -209.504,78.564 -497.572,130.94 -497.572,157.128 -52.376,104.752 261.88,0 314.256,104.752 26.188,78.564 -157.128,104.752 -157.128,183.316 -26.188,157.226 0,314.354 52.376,445.294 26.188,78.564 157.128,104.752 157.128,183.316 0,288.068 -471.384,392.82 -523.76,680.986 0,104.752 209.504,-52.474 288.068,0 183.316,130.94 340.444,314.256 366.632,523.76 26.188,104.752 -183.316,-209.504 -288.068,-183.316 -130.94,52.376 -288.068,288.068 -366.632,392.82 l 0,0 z m 4949.92,-4347.62 0,26.188 c 288.07,-209.504 733.36,-104.752 1047.62,-52.376 26.19,52.376 130.94,104.85 130.94,157.226 -26.19,157.128 -183.32,261.88 -183.32,419.008 26.19,523.76 445.2,497.572 78.57,916.677 -130.94,130.94 -340.45,157.128 -471.39,288.068 -235.79,261.88 52.38,340.444 288.07,471.384 l 157.13,392.918 c -209.5,183.316 -785.74,104.752 -785.74,340.444 26.19,288.068 654.8,680.986 0,707.174 -235.69,0 -419.01,-157.226 -628.51,-261.978 104.75,52.376 235.69,104.752 261.88,26.188 52.38,-183.316 -104.75,-392.82 -235.69,-549.948 -52.38,-52.376 -78.56,104.752 -130.94,104.752 -157.13,0 -261.98,-130.94 -392.92,-157.128 -130.94,-26.188 -261.88,78.564 -366.63,52.376 -52.38,0 -52.38,-78.564 -52.38,-104.752 157.13,-419.106 -314.25,-314.256 -288.06,-392.82 26.18,-104.85 209.5,-78.662 235.69,-183.414 104.75,-759.451 -130.94,-549.948 -550.05,-916.579 -52.37,-52.376 -209.5,-183.414 -130.94,-209.602 235.79,-130.94 1492.91,157.226 1257.12,-654.699 -52.37,-183.316 -340.44,-130.94 -497.57,-235.692 -78.56,-52.376 183.32,52.376 261.88,52.376 130.94,52.376 261.88,104.752 392.92,104.752 392.82,0 1021.33,-183.316 890.39,628.511 -26.19,130.94 -366.63,261.978 -261.88,340.542 471.38,392.82 314.25,-550.046 235.69,-916.677 -26.19,-157.128 -445.2,-26.188 -392.82,-157.128 26.19,-104.752 78.56,-157.128 130.94,-235.79 z m 523.76,4190.47 -130.94,0 c 0,26.188 0,52.376 0,52.376 26.19,52.376 0,78.564 0,104.752 -78.56,52.376 -183.32,130.94 -209.5,183.316 -78.57,52.376 -130.94,104.752 -157.13,183.316 l -26.19,26.286 c 0,26.188 0,26.188 0,26.188 0,0 0,-26.188 0,-52.474 -157.13,0 -340.44,-26.188 -419.01,0 -130.94,26.286 -235.79,261.978 -392.92,235.79 -209.5,-26.188 -314.25,-288.166 -497.57,-392.918 -130.94,-78.564 -314.25,-130.94 -419.01,-235.692 -78.56,-52.376 209.51,-104.752 471.39,-576.136 366.63,314.256 916.68,392.82 1230.93,654.699 26.19,26.188 26.19,26.188 26.19,26.188 -157.13,-235.692 -497.58,-419.008 -366.64,-628.511 52.38,-104.752 209.51,-52.376 288.07,-78.564 183.32,183.316 576.14,157.128 628.51,392.82 0,26.188 0,52.376 -26.19,78.564 l 0,0 z m -7909.36,-3823.74 c 0,52.376 0,130.94 0,209.504 -26.188,-157.128 -26.188,-314.256 0,-209.504 z m 4583.29,-5002.3 c 78.56,288.068 -183.32,1702.32 -654.8,1545.19 -157.13,-52.376 -288.07,-235.692 -471.382,-235.692 183.312,-235.79 -602.422,-52.376 -811.925,0 -183.316,52.376 -340.444,209.504 -523.76,235.692 -78.564,0 -131.038,-130.94 -209.602,-130.94 -209.504,-26.188 -419.008,0 -602.324,52.376 -78.564,26.188 -26.188,183.316 -104.752,235.692 -366.632,157.128 26.188,-890.489 -497.67,497.572 -26.188,26.188 131.038,759.549 104.752,759.549 -864.203,-26.188 -392.82,-1649.94 104.85,-1833.26 445.196,-209.602 1073.71,26.188 1519,-157.226 602.324,-288.068 471.384,-1126.18 1021.43,-1440.44 183.313,-78.564 419.013,-26.188 602.323,-104.752 183.32,-104.752 288.07,-471.384 497.67,-471.384 392.82,0 -209.6,288.068 -235.79,523.76 -52.38,366.632 131.04,130.94 261.98,523.858 l 0,0 z m 2409.49,8904.6 -235.69,26.188 c 183.31,52.376 340.44,130.94 471.38,261.88 l 26.19,0 c -78.56,-104.752 -183.32,-183.316 -261.88,-288.068 z"
       id="dk"
       style="fill:#244094;fill-opacity:0.17254902;stroke:#000000;stroke-width:190.06399536;stroke-linecap:round;stroke-linejoin:round;stroke-miterlimit:4;stroke-opacity:0.45882353;stroke-dasharray:none"
       inkscape:connector-curvature="0"
       sodipodi:nodetypes="ccccccccccscccccccccsccccccsscccccccccccccscccccccccccccscccccccscccccccccccccccccccccsscccccccccscccccccccccccccccccccccccccccccccccccccccccccsccccccccc" /></g></svg>